<svg width="40" height="40" viewBox="0 0 40 40" fill="none" xmlns="http://www.w3.org/2000/svg">
<g clip-path="url(#clip0_2059_24257)">
<path d="M39.8452 2.34375C39.4702 1.23906 38.7342 0.5 37.6186 0.144531C37.4741 0.0984375 37.3311 0.0484375 37.1866 0H16.953C16.8944 0.0234375 16.8381 0.0578125 16.7772 0.06875C14.7991 0.442188 13.4022 2.04688 13.3506 4.05078C13.3209 5.18281 13.3366 6.31562 13.3475 7.44844C13.3491 7.62187 13.4022 7.81328 13.4897 7.9625C13.6733 8.27656 14.06 8.39531 14.4108 8.2875C14.7725 8.17656 14.9936 7.88359 14.9967 7.46016C15.0045 6.41875 14.9983 5.37734 15.0006 4.33594C15.0038 2.72344 16.0506 1.66406 17.6616 1.66172C21.9834 1.65703 26.3061 1.66016 30.628 1.66172C30.7163 1.66172 30.8053 1.67813 30.8936 1.68672C30.8327 1.76641 30.7741 1.78828 30.7147 1.80781C29.1256 2.34063 27.5366 2.87266 25.9467 3.40547C24.1045 4.02266 23.3405 5.08828 23.3405 7.04063C23.3405 15.6328 23.3405 24.225 23.3405 32.8172V33.2961C23.2413 33.3195 23.2045 33.3359 23.1678 33.3359C21.267 33.3375 19.3663 33.3656 17.4663 33.3281C16.017 33.2992 15.0092 32.2031 15.0022 30.7406C14.9975 29.725 15.0022 28.7094 15.0006 27.6945C14.9999 27.0625 14.6897 26.6758 14.1811 26.6664C13.6741 26.657 13.3444 27.0461 13.342 27.6695C13.3389 28.6852 13.3342 29.7008 13.342 30.7156C13.3616 33.2273 15.1506 34.9961 17.6725 35C19.417 35.0031 21.1616 35 22.9061 35H23.3475C23.3475 35.6461 23.3311 36.2305 23.3506 36.8141C23.3858 37.8547 23.8217 38.718 24.6702 39.3055C25.117 39.6148 25.6678 39.7734 26.1717 40H27.1874C29.4475 39.2461 31.7077 38.4914 33.9686 37.7375C35.1741 37.3359 36.3811 36.9383 37.5866 36.5344C38.8592 36.107 39.6663 35.2555 39.942 33.9258C39.9491 33.8906 39.9803 33.8602 39.9999 33.8273V2.8125C39.9483 2.65625 39.8983 2.49922 39.8452 2.34375ZM36.9772 34.9844C33.785 36.0484 30.5819 37.0828 27.403 38.1867C25.9991 38.6742 24.9709 37.6523 24.9819 36.4438C25.0249 31.5242 24.9999 26.6039 24.9999 21.6844C24.9999 16.7648 24.9999 11.8703 24.9999 6.96406C24.9999 5.85078 25.3545 5.35625 26.41 5.00391C29.5889 3.94219 32.7686 2.88125 35.9483 1.82109C37.2967 1.37109 38.3389 2.11484 38.3389 3.53828C38.3413 13.3914 38.3405 23.2438 38.3389 33.0969C38.3389 34.1156 37.9413 34.6641 36.9772 34.9852V34.9844Z" fill="#002D55"/>
<path d="M18.0422 16.8493C15.8867 14.6977 13.7305 12.5469 11.5734 10.3977C11.482 10.3063 11.3875 10.2133 11.2797 10.1422C10.9383 9.91802 10.5312 9.96646 10.2453 10.2532C9.96172 10.5376 9.91641 10.9508 10.1461 11.2876C10.2328 11.4149 10.3469 11.5258 10.457 11.636C12.0117 13.1922 13.5672 14.7469 15.1227 16.3024C15.2172 16.3969 15.3055 16.4969 15.457 16.6602H14.8945C10.3 16.6602 5.70625 16.6641 1.11172 16.6547C0.608594 16.654 0.226562 16.7985 0 17.2657V17.7344C0.226562 18.2008 0.609375 18.3461 1.11172 18.3454C5.71875 18.336 10.3266 18.3399 14.9336 18.3399H15.4641C15.2891 18.5235 15.1938 18.6266 15.0945 18.7258C13.5484 20.2719 12.0023 21.818 10.457 23.3649C10.3383 23.4844 10.2141 23.6047 10.1242 23.7454C9.94844 24.0211 9.95312 24.3165 10.1242 24.5938C10.2945 24.8696 10.5602 25.0469 10.875 24.9813C11.1125 24.9321 11.3664 24.7969 11.5391 24.6258C13.7141 22.4758 15.8766 20.3126 18.0398 18.1508C18.4547 17.736 18.4531 17.2602 18.0398 16.8477L18.0422 16.8493Z" fill="#002D55"/>
</g>
<defs>
<clipPath id="clip0_2059_24257">
<rect width="40" height="40" fill="white"/>
</clipPath>
</defs>
</svg>
