<svg width="10" height="19" viewBox="0 0 10 19" fill="none" xmlns="http://www.w3.org/2000/svg">
<g clip-path="url(#clip0_2_465)">
<path d="M9.9884 2.29081L9.9884 2.01575C9.9079 1.81359 9.85012 1.59664 9.74202 1.41269C9.57159 1.12182 9.28463 0.997354 8.98208 0.915525L8.65746 0.915525C8.29584 0.993574 8.03614 1.23356 7.78391 1.50002C5.55486 3.86826 3.3218 6.2333 1.08474 8.59512C0.82504 8.87018 0.588719 9.15074 0.509511 9.54373L0.509511 9.88755C0.588719 10.2805 0.824392 10.5614 1.08474 10.8362C3.32093 13.1971 5.55388 15.5621 7.78359 17.9313C8.03614 18.1994 8.29649 18.4387 8.65746 18.5157L8.98208 18.5157C9.16192 18.4315 9.35442 18.3682 9.51835 18.2579C9.79233 18.0739 9.9079 17.7693 9.9884 17.4499L9.9884 17.1405C9.92348 16.7554 9.70891 16.4734 9.45441 16.2049C7.45497 14.0962 5.45845 11.9839 3.46485 9.86829C3.41973 9.82085 3.35902 9.78956 3.27332 9.72698C3.36681 9.64618 3.42038 9.60733 3.4655 9.55988C5.4578 7.45111 7.4502 5.34234 9.44272 3.23357C9.70079 2.96573 9.92088 2.68071 9.9884 2.29081Z" fill="#20476A"/>
</g>
<defs>
<clipPath id="clip0_2_465">
<rect width="17.6037" height="9.47889" fill="white" transform="matrix(4.37114e-08 -1 -1 -4.37114e-08 9.9884 18.5199)"/>
</clipPath>
</defs>
</svg>
