<svg width="10" height="19" viewBox="0 0 10 19" fill="none" xmlns="http://www.w3.org/2000/svg">
<g clip-path="url(#clip0_2_463)">
<path d="M0.16455 2.29081L0.16455 2.01575C0.245056 1.81359 0.302837 1.59664 0.410935 1.41269C0.58136 1.12182 0.868325 0.997354 1.17087 0.915525L1.49549 0.915525C1.85712 0.993574 2.11681 1.23356 2.36904 1.50002C4.5981 3.86826 6.83116 6.2333 9.06822 8.59512C9.32791 8.87018 9.56424 9.15074 9.64344 9.54373L9.64344 9.88755C9.56424 10.2805 9.32856 10.5614 9.06822 10.8362C6.83202 13.1971 4.59907 15.5621 2.36937 17.9313C2.11681 18.1994 1.85647 18.4387 1.49549 18.5157L1.17087 18.5157C0.991032 18.4315 0.798532 18.3682 0.634599 18.2579C0.36062 18.0739 0.245056 17.7693 0.164551 17.4499L0.164551 17.1405C0.229475 16.7554 0.444047 16.4734 0.698548 16.2049C2.69799 14.0962 4.69451 11.9839 6.6881 9.86829C6.73323 9.82085 6.79393 9.78956 6.87963 9.72698C6.78614 9.64618 6.73258 9.60733 6.68745 9.55988C4.69516 7.45111 2.70275 5.34234 0.710238 3.23357C0.452165 2.96573 0.232071 2.68071 0.16455 2.29081Z" fill="#20476A"/>
</g>
<defs>
<clipPath id="clip0_2_463">
<rect width="17.6037" height="9.47889" fill="white" transform="translate(0.164551 18.5199) rotate(-90)"/>
</clipPath>
</defs>
</svg>
