<svg width="40" height="40" viewBox="0 0 40 40" fill="none" xmlns="http://www.w3.org/2000/svg">
<g clip-path="url(#clip0_2059_24285)">
<path d="M24.4157 15.1027L18.3233 21.195L16.3882 19.2599C15.6933 18.5651 14.5668 18.5651 13.8732 19.2599C13.1783 19.9548 13.1783 21.0812 13.8732 21.7749L17.0664 24.9681C17.4138 25.3155 17.8692 25.4886 18.3245 25.4886C18.7798 25.4886 19.2351 25.3155 19.5826 24.9681L26.933 17.6176C27.6279 16.9228 27.6279 15.7963 26.933 15.1027C26.2382 14.4078 25.1117 14.4078 24.418 15.1027H24.4157Z" fill="#002D55"/>
<path d="M39.4902 18.6624C38.6899 17.4708 37.9084 16.2684 37.3085 15.3412C37.3796 13.891 37.4662 12.4444 37.5349 11.3357C37.6013 10.265 37.2255 9.60332 36.2792 9.12191C35.9128 8.93575 35.5464 8.75077 35.18 8.56461C34.3571 8.14841 33.507 7.71917 32.6781 7.28756C32.0188 6.01881 31.375 4.73702 30.8224 3.6319C30.411 2.80899 29.6556 2.36671 28.7545 2.4177L28.477 2.43311C27.2083 2.50544 25.8968 2.57896 24.6091 2.63587C23.357 1.82838 22.2601 1.10389 21.2582 0.423268C20.427 -0.142333 19.5104 -0.141147 18.678 0.423268C17.5397 1.19756 16.3682 1.96118 15.3271 2.63943C14.0548 2.57659 12.7789 2.50188 11.369 2.4177C10.2284 2.35011 9.5845 2.71532 9.07463 3.72439C8.91692 4.03743 8.75803 4.35046 8.60033 4.6635C8.16634 5.52435 7.71932 6.41366 7.26873 7.27926C5.86125 8.01205 4.77155 8.56343 3.73995 9.06381C2.78898 9.52507 2.32654 10.3266 2.40243 11.3843C2.49966 12.7444 2.56606 14.089 2.62298 15.3423C1.93168 16.4143 1.21668 17.5217 0.482701 18.5771C-0.154045 19.4936 -0.158788 20.4577 0.469658 21.3648C1.21905 22.4473 1.92813 23.5525 2.61349 24.6232C2.55302 26.0058 2.4795 27.3717 2.39413 28.682C2.33128 29.6555 2.78661 30.4322 3.67592 30.8709C4.79645 31.4223 5.96915 32.0175 7.26043 32.6886C7.84382 33.8115 8.44737 34.9985 9.10308 36.3158C9.52758 37.1708 10.271 37.6107 11.1971 37.5561C11.6596 37.5289 12.1232 37.504 12.5856 37.4791C13.469 37.4304 14.382 37.3818 15.2844 37.3178C15.3034 37.3166 15.3152 37.3178 15.3176 37.3166C15.3235 37.319 15.3366 37.3261 15.3591 37.3415C16.2816 37.9569 17.2219 38.5723 18.1314 39.1664C18.4574 39.3798 18.7835 39.5932 19.1096 39.8067L19.406 40.0011H20.5586L21.6756 39.2612C22.6372 38.6245 23.6297 37.9664 24.6103 37.3225C25.8447 37.3866 27.2569 37.4625 28.6312 37.5549C29.6177 37.6213 30.4003 37.1731 30.8343 36.2921C31.3714 35.2001 31.9702 34.0202 32.6603 32.6898C33.9658 32.0116 35.1468 31.4128 36.2686 30.8602C37.1389 30.431 37.5824 29.6614 37.5195 28.6915C37.4721 27.9729 37.4318 27.2389 37.3938 26.5287C37.3594 25.905 37.3262 25.2813 37.2871 24.6588C37.2871 24.6505 37.2871 24.6433 37.2871 24.6374C37.6689 24.073 38.0472 23.4979 38.4136 22.9406C38.7669 22.4035 39.1333 21.8474 39.4973 21.3078C40.0701 20.46 40.0689 19.5209 39.4938 18.6636L39.4902 18.6624ZM36.4286 21.6351C36.0646 22.1877 35.6887 22.7592 35.3128 23.3141C35.0105 23.76 34.8812 24.2485 34.9156 24.8058C34.9548 25.4224 34.9879 26.039 35.0212 26.6567C35.0591 27.348 35.097 28.0619 35.1433 28.7674C34.0085 29.3282 32.8133 29.9341 31.4936 30.6207C31.1153 30.8175 30.7857 31.1448 30.59 31.5219C29.8869 32.8748 29.2786 34.0736 28.7308 35.1858C27.2889 35.0898 25.8174 35.0115 24.5474 34.9451C24.1716 34.9238 23.7755 35.0317 23.4637 35.2368C22.4261 35.9162 21.3768 36.6123 20.3618 37.2858L19.9752 37.5419C19.7926 37.4221 19.61 37.3024 19.4274 37.1826C18.5215 36.5909 17.5859 35.9779 16.6729 35.3696C16.2484 35.0862 15.799 34.9475 15.3069 34.9475C15.2429 34.9475 15.1789 34.9499 15.1136 34.9546C14.2314 35.0174 13.3279 35.0661 12.454 35.1135C12.0307 35.136 11.6074 35.1597 11.1841 35.1835C10.5272 33.8637 9.92125 32.672 9.33312 31.5432C9.13036 31.1543 8.79479 30.8175 8.41061 30.6171C7.0968 29.933 5.90275 29.327 4.76206 28.765C4.84744 27.4393 4.92095 26.0603 4.98143 24.6647C5.0004 24.2283 4.8759 23.7671 4.63993 23.3983C3.96524 22.3454 3.20162 21.1525 2.41547 20.0166C2.40717 20.0035 2.39887 19.9928 2.39294 19.9822C2.40124 19.9679 2.4131 19.9513 2.42614 19.9312C3.19451 18.8249 3.93204 17.683 4.64467 16.5779L4.65772 16.5577C4.88894 16.1985 5.01107 15.7479 4.99091 15.321C4.93281 14.0262 4.86404 12.6329 4.76206 11.2159C4.76206 11.2112 4.76206 11.2076 4.76206 11.2029C4.76443 11.2029 4.76681 11.2005 4.76918 11.1993C5.83279 10.6835 6.95451 10.1168 8.40468 9.36025C8.79716 9.15511 9.14103 8.80887 9.34972 8.41046C9.81453 7.51997 10.271 6.61168 10.7145 5.73304C10.8722 5.42119 11.0287 5.10934 11.1864 4.79749C11.1888 4.79393 11.19 4.79038 11.1924 4.78682C11.2019 4.78682 11.2125 4.78682 11.2232 4.788C12.7054 4.87575 14.0405 4.95519 15.384 5.01923C15.8962 5.04413 16.3172 4.82358 16.5235 4.68959C17.5847 3.9983 18.7859 3.2157 19.9645 2.41532C20.9866 3.11017 22.1048 3.84771 23.3795 4.66824C23.7447 4.90302 24.2071 5.02753 24.6459 5.00855C25.9692 4.95164 27.309 4.87575 28.6063 4.80223L28.7474 4.79393C29.3011 5.90142 29.9426 7.17729 30.6007 8.44248C30.8011 8.82666 31.1378 9.16341 31.5256 9.36499C32.384 9.81202 33.2591 10.2543 34.1058 10.6824C34.4579 10.8602 34.8101 11.0381 35.1623 11.2171C35.0911 12.372 34.9998 13.8839 34.9287 15.391C34.9038 15.9115 35.1302 16.3455 35.2678 16.5589C35.8784 17.504 36.6871 18.7478 37.5183 19.9845L37.5207 19.9869C37.1508 20.5359 36.782 21.0944 36.4263 21.6351H36.4286Z" fill="#002D55"/>
<path d="M19.9916 7.08496C19.9774 7.08496 19.9632 7.08496 19.949 7.08496C16.5067 7.09563 13.2744 8.4379 10.8483 10.8651C8.41994 13.2935 7.07293 16.5354 7.05396 19.993V20.0072C7.10138 27.1205 12.8748 32.8904 19.9335 32.8904C19.949 32.8904 19.9656 32.8904 19.981 32.8904C27.1049 32.8643 32.8855 27.0695 32.8677 19.9728C32.8594 16.5294 31.5076 13.29 29.0638 10.8509C26.6283 8.4213 23.4078 7.08615 19.9905 7.08615L19.9916 7.08496ZM19.9727 30.5177C19.9596 30.5177 19.9466 30.5177 19.9335 30.5177C14.1767 30.5177 9.46814 25.8067 9.42545 19.9977C9.44205 17.1709 10.5436 14.5232 12.525 12.5406C14.5064 10.558 17.1447 9.46476 19.9561 9.45527C19.9679 9.45527 19.9786 9.45527 19.9905 9.45527C22.7758 9.45527 25.4022 10.5462 27.3883 12.5275C29.3851 14.5196 30.4891 17.165 30.4962 19.9764C30.5104 25.7664 25.7899 30.4952 19.9715 30.5165L19.9727 30.5177Z" fill="#002D55"/>
</g>
<defs>
<clipPath id="clip0_2059_24285">
<rect width="39.9217" height="40" fill="white"/>
</clipPath>
</defs>
</svg>
