<svg width="34" height="40" viewBox="0 0 34 40" fill="none" xmlns="http://www.w3.org/2000/svg">
<g clip-path="url(#clip0_2059_24367)">
<path d="M27.0727 0H6.51529C2.92331 0 0 2.92331 0 6.51529V33.4847C0 37.0777 2.92331 40 6.51529 40H27.0727C30.6657 40 33.588 37.0767 33.588 33.4847V6.51529C33.588 2.92331 30.6647 0 27.0727 0ZM32.0842 33.4847C32.0842 36.2486 29.8356 38.4962 27.0727 38.4962H6.51529C3.75138 38.4962 1.50376 36.2476 1.50376 33.4847V6.51529C1.50376 3.75138 3.75238 1.50376 6.51529 1.50376H27.0727C29.8366 1.50376 32.0842 3.75238 32.0842 6.51529V33.4847Z" fill="#002D55"/>
<path d="M23.0196 13.3723L13.8577 22.5332L10.4793 19.1547C9.8918 18.5673 8.93942 18.5673 8.35296 19.1547C7.76549 19.7422 7.76549 20.6946 8.35296 21.281L12.7941 25.7221C13.0878 26.0159 13.4728 26.1622 13.8577 26.1622C14.2427 26.1622 14.6276 26.0159 14.9214 25.7221L25.1449 15.4976C25.7324 14.9101 25.7324 13.9577 25.1449 13.3713C24.5575 12.7838 23.6061 12.7838 23.0186 13.3713L23.0196 13.3723Z" fill="#002D55"/>
</g>
<defs>
<clipPath id="clip0_2059_24367">
<rect width="33.588" height="40" fill="white"/>
</clipPath>
</defs>
</svg>
