<svg width="79" height="74" viewBox="0 0 79 74" fill="none" xmlns="http://www.w3.org/2000/svg">
<path d="M63.6574 6.40385H58.2639V3.55769C58.2639 1.59385 56.6778 0 54.7234 0C52.7689 0 51.1828 1.59385 51.1828 3.55769V6.40385H42.6853V3.55769C42.6853 1.59385 41.0992 0 39.1448 0C37.1904 0 35.6042 1.59385 35.6042 3.55769V6.40385H27.5788V3.55769C27.5788 1.59385 25.9926 0 24.0382 0C22.0838 0 20.4977 1.59385 20.4977 3.55769V6.40385H15.3402C6.88291 6.40385 0 13.32 0 21.8181V58.5857C0 67.0862 6.88291 74 15.3402 74H63.6574C72.1171 74 78.9976 67.0838 78.9976 58.5857V21.8181C78.9976 13.3176 72.1147 6.40385 63.6574 6.40385ZM63.6574 70.4423H15.3402C8.83259 70.4423 3.54059 65.1224 3.54059 58.5857V24.7853H75.4594V58.5857C75.4594 65.1247 70.165 70.4423 63.6598 70.4423H63.6574Z" fill="white"/>
<path d="M36.3097 43.8402C37.4285 43.309 38.2783 42.6164 38.8636 41.7649C39.449 40.9134 39.7394 40.005 39.7394 39.0468C39.7394 37.0664 39.0336 35.5081 37.6197 34.3744C36.2058 33.2407 34.2656 32.6738 31.7966 32.6738C30.4134 32.6738 29.1459 32.9324 27.994 33.447C26.8398 33.9617 25.9381 34.6804 25.289 35.5983C24.6376 36.5185 24.3142 37.5645 24.3142 38.7385H29.4528C29.4528 38.1456 29.7053 37.6499 30.2081 37.2538C30.7108 36.8553 31.3033 36.6561 31.9831 36.6561C32.8163 36.6561 33.4607 36.8885 33.9186 37.3534C34.3765 37.8183 34.6055 38.4183 34.6055 39.1536C34.6055 41.0439 33.6448 41.9879 31.7235 41.9879H29.2993V45.8325H31.799C32.7856 45.8325 33.5575 46.0674 34.1169 46.537C34.6763 47.0066 34.9548 47.8035 34.9548 48.9277C34.9548 49.7152 34.6857 50.3603 34.1476 50.8655C33.6094 51.3707 32.8871 51.6245 31.9831 51.6245C31.1806 51.6245 30.5055 51.3754 29.9555 50.875C29.4056 50.3745 29.1317 49.7816 29.1317 49.0985H23.9648C23.9648 50.3556 24.2859 51.475 24.9255 52.4617C25.5652 53.4484 26.5093 54.2192 27.7533 54.7742C28.9972 55.3316 30.3473 55.6091 31.8013 55.6091C34.2821 55.6091 36.2837 55.0114 37.8085 53.816C39.3334 52.6206 40.0958 51.0292 40.0958 49.0368C40.0958 47.7513 39.7606 46.6698 39.0902 45.797C38.4199 44.9241 37.4946 44.2719 36.3168 43.8426L36.3097 43.8402Z" fill="white"/>
<path d="M43.856 36.3811V40.3041L48.9166 38.817V55.3009H54.0694V32.9966H53.5973L43.856 36.3811Z" fill="white"/>
</svg>
