<svg width="50" height="40" viewBox="0 0 50 40" fill="none" xmlns="http://www.w3.org/2000/svg">
<g clip-path="url(#clip0_2059_24183)">
<path d="M10.585 21.9845C8.98025 22.0014 7.63736 22.64 6.59693 23.8789C5.63072 25.0291 5.33665 26.3879 5.38426 27.8651C5.42347 29.0689 5.91918 29.6003 7.11784 29.6017C9.37373 29.6017 11.631 29.6017 13.8869 29.6017H14.4624C16.5867 29.6017 18.7096 29.6073 20.8338 29.5989C21.8309 29.5946 22.391 29.0153 22.3966 28.0145C22.398 27.7763 22.3966 27.5395 22.3966 27.3013C22.3854 24.3173 20.1393 22.0141 17.1762 21.9845C14.9792 21.962 12.7807 21.962 10.5836 21.9859L10.585 21.9845Z" fill="#002D55"/>
<path d="M13.87 20.0819C16.4759 20.0917 18.596 17.9647 18.6016 15.3359C18.6072 12.7114 16.4843 10.566 13.8854 10.5689C11.3004 10.5731 9.19435 12.6874 9.17614 15.2979C9.15794 17.9238 11.2654 20.072 13.87 20.0819Z" fill="#002D55"/>
<path d="M0 9.16062V30.8394C0 35.8912 4.08329 40 9.10059 40H29.1208V0H9.10059C4.08329 0 0 4.11023 0 9.16062ZM27.0203 37.8857H9.10059C5.23994 37.8857 2.10046 34.7241 2.10046 30.8394V9.16062C2.10046 5.27451 5.24134 2.11431 9.10059 2.11431H27.0189V37.8857H27.0203Z" fill="#002D55"/>
<path d="M31.2409 16.3832H37.3728L42.589 11.1326C43.2919 11.5794 44.1223 11.8388 45.0129 11.8388C47.5223 11.8388 49.5639 9.78367 49.5639 7.25777C49.5639 4.73187 47.5223 2.67676 45.0129 2.67676C42.5036 2.67676 40.4619 4.73187 40.4619 7.25777C40.4619 8.12323 40.7014 8.93231 41.1173 9.62298L36.5032 14.2674H31.2409C30.6612 14.2674 30.1907 14.741 30.1907 15.3246C30.1907 15.9081 30.6612 16.3817 31.2409 16.3817V16.3832ZM45.0129 4.79248C46.3642 4.79248 47.4634 5.89897 47.4634 7.25918C47.4634 8.61939 46.3642 9.72588 45.0129 9.72588C44.4038 9.72588 43.8465 9.49894 43.418 9.12682C43.3773 9.0634 43.3311 9.00278 43.2751 8.94781C43.2247 8.89707 43.1701 8.85337 43.1141 8.81532C42.7696 8.39104 42.5624 7.84978 42.5624 7.25918C42.5624 5.89897 43.6616 4.79248 45.0129 4.79248Z" fill="#002D55"/>
<path d="M45.0141 28.9282C44.1235 28.9282 43.2918 29.1875 42.5902 29.6343L37.3741 24.3838H31.2421C30.6624 24.3838 30.1919 24.8574 30.1919 25.4409C30.1919 26.0245 30.6624 26.4981 31.2421 26.4981H36.5045L41.1185 31.1425C40.7026 31.8332 40.4631 32.6423 40.4631 33.5078C40.4631 36.0337 42.5048 38.0888 45.0141 38.0888C47.5235 38.0888 49.5651 36.0337 49.5651 33.5078C49.5651 30.9819 47.5235 28.9267 45.0141 28.9267V28.9282ZM45.0141 35.9759C43.6628 35.9759 42.5636 34.8694 42.5636 33.5092C42.5636 32.92 42.7708 32.3787 43.1153 31.953C43.1727 31.915 43.2259 31.8713 43.2763 31.8205C43.331 31.7656 43.3786 31.705 43.4192 31.6415C43.8477 31.2694 44.405 31.0425 45.0141 31.0425C46.3654 31.0425 47.4647 32.149 47.4647 33.5092C47.4647 34.8694 46.3654 35.9759 45.0141 35.9759Z" fill="#002D55"/>
<path d="M45.0141 15.9277C42.8815 15.9277 41.0891 17.412 40.5976 19.4065H31.2421C30.6624 19.4065 30.1919 19.8801 30.1919 20.4636C30.1919 21.0472 30.6624 21.5208 31.2421 21.5208H40.5766C41.0359 23.5618 42.8507 25.0898 45.0141 25.0898C47.5235 25.0898 49.5651 23.0346 49.5651 20.5087C49.5651 17.9828 47.5235 15.9277 45.0141 15.9277ZM45.0141 22.9754C43.6628 22.9754 42.5636 21.869 42.5636 20.5087C42.5636 19.1485 43.6628 18.042 45.0141 18.042C46.3654 18.042 47.4647 19.1485 47.4647 20.5087C47.4647 21.869 46.3654 22.9754 45.0141 22.9754Z" fill="#002D55"/>
</g>
<defs>
<clipPath id="clip0_2059_24183">
<rect width="49.5652" height="40" fill="white"/>
</clipPath>
</defs>
</svg>
