<svg width="15" height="16" viewBox="0 0 15 16" fill="none" xmlns="http://www.w3.org/2000/svg">
<path fill-rule="evenodd" clip-rule="evenodd" d="M8.18855 7.9155e-05H6.81156C6.68916 7.9155e-05 6.62796 0.058219 6.62796 0.174498V6.97674H0.174419C0.0581395 6.97674 0 7.03794 0 7.16034V8.53733C0 8.65973 0.0581395 8.72093 0.174419 8.72093H6.62796V15.5233C6.62796 15.6396 6.68916 15.6978 6.81156 15.6978H8.18855C8.31095 15.6978 8.37215 15.6396 8.37215 15.5233V8.72093H14.8256C14.9419 8.72093 15 8.65973 15 8.53733V7.16034C15 7.03794 14.9419 6.97674 14.8256 6.97674H8.37215V0.174498C8.37215 0.058219 8.31095 7.9155e-05 8.18855 7.9155e-05Z" fill="white"/>
</svg>
