<svg width="40" height="40" viewBox="0 0 40 40" fill="none" xmlns="http://www.w3.org/2000/svg">
<g clip-path="url(#clip0_2059_24211)">
<path d="M24.1453 6.15869H7.96831C3.57526 6.15869 0 9.78668 0 14.2445V31.9142C0 36.3733 3.57526 40.0001 7.96831 40.0001H24.1453C28.5395 40.0001 32.1136 36.3721 32.1136 31.9142V14.2445C32.1136 9.78544 28.5383 6.15869 24.1453 6.15869ZM30.2744 31.9142C30.2744 35.3444 27.5243 38.1338 24.1453 38.1338H7.96831C4.588 38.1338 1.83912 35.3431 1.83912 31.9142V14.2445C1.83912 10.8144 4.58923 8.02494 7.96831 8.02494H24.1453C27.5256 8.02494 30.2744 10.8156 30.2744 14.2445V31.9142Z" fill="#002D55"/>
<path d="M30.8557 0H14.6787C12.2082 0 9.8823 1.11726 8.2982 3.06314C7.86662 3.59316 7.94018 4.37698 8.46249 4.81493C8.98481 5.25288 9.75724 5.17823 10.1888 4.64821C11.3058 3.27589 12.9426 2.48834 14.6787 2.48834H30.8557C34.0668 2.48834 36.6783 5.13841 36.6783 8.39689V26.0666C36.6783 28.1344 35.6313 30.0193 33.8792 31.1092C33.3017 31.4687 33.1202 32.2339 33.4746 32.8199C33.7063 33.2031 34.1085 33.4146 34.5217 33.4146C34.7399 33.4146 34.9618 33.3549 35.1617 33.2317C37.6102 31.7089 39.1317 28.963 39.1317 26.0666V8.39689C39.1305 3.76734 35.4179 0 30.8557 0Z" fill="#002D55"/>
</g>
<defs>
<clipPath id="clip0_2059_24211">
<rect width="39.1304" height="40" fill="white"/>
</clipPath>
</defs>
</svg>
