<svg width="41" height="40" viewBox="0 0 41 40" fill="none" xmlns="http://www.w3.org/2000/svg">
<g clip-path="url(#clip0_2059_24299)">
<path d="M32.9923 0H7.93989C3.56251 0 0 3.56251 0 7.93989V24.9241C0 29.2453 3.46966 32.7675 7.76885 32.8603C7.65035 34.0759 7.04927 36.4204 4.32607 38.3238C4.00721 38.5462 3.86427 38.9457 3.96811 39.3207C4.07196 39.6958 4.40182 39.9634 4.79032 39.989C4.81476 39.9902 4.97725 40.0012 5.25335 40.0012C6.0609 40.0012 7.8336 39.9145 9.89341 39.2731C13.3936 38.1833 16.151 35.9732 17.9029 32.8652H32.9923C37.3709 32.8652 40.9322 29.3027 40.9322 24.9253V7.93989C40.9322 3.56251 37.3697 0 32.9923 0ZM39.0996 24.9241C39.0996 28.2924 36.3593 31.0314 32.9923 31.0314H17.4876V31.0412C17.1113 30.9874 16.7252 31.1719 16.542 31.5287C15.0295 34.4742 12.63 36.4839 9.41205 37.5028C8.70713 37.7264 8.03641 37.8754 7.43899 37.9744C9.93128 35.0631 9.62463 32.0002 9.6063 31.8439C9.55866 31.4236 9.23246 31.106 8.83296 31.0449V31.0302H7.94111C4.57286 31.0302 1.83379 28.2899 1.83379 24.9229V7.93989C1.83379 4.57164 4.57408 1.83256 7.94111 1.83256H32.9923C36.3605 1.83256 39.0996 4.57286 39.0996 7.93989V24.9241Z" fill="#002D55"/>
<path d="M20.4539 19.9137C21.9721 19.9137 23.2028 18.683 23.2028 17.1649C23.2028 15.6467 21.9721 14.416 20.4539 14.416C18.9358 14.416 17.7051 15.6467 17.7051 17.1649C17.7051 18.683 18.9358 19.9137 20.4539 19.9137Z" fill="#002D55"/>
<path d="M12.6351 19.9137C14.1532 19.9137 15.3839 18.683 15.3839 17.1649C15.3839 15.6467 14.1532 14.416 12.6351 14.416C11.1169 14.416 9.88623 15.6467 9.88623 17.1649C9.88623 18.683 11.1169 19.9137 12.6351 19.9137Z" fill="#002D55"/>
<path d="M28.3948 19.9137C29.913 19.9137 31.1437 18.683 31.1437 17.1649C31.1437 15.6467 29.913 14.416 28.3948 14.416C26.8767 14.416 25.646 15.6467 25.646 17.1649C25.646 18.683 26.8767 19.9137 28.3948 19.9137Z" fill="#002D55"/>
</g>
<defs>
<clipPath id="clip0_2059_24299">
<rect width="40.9322" height="40" fill="white"/>
</clipPath>
</defs>
</svg>
