<svg width="40" height="40" viewBox="0 0 40 40" fill="none" xmlns="http://www.w3.org/2000/svg">
<g clip-path="url(#clip0_2059_24233)">
<path d="M20.0302 15.832C18.9155 15.832 18.0107 16.7371 18.0107 17.8523V29.6601C18.0107 30.7753 18.9155 31.6804 20.0302 31.6804C21.1449 31.6804 22.0497 30.7753 22.0497 29.6601V17.8523C22.0497 16.7371 21.1449 15.832 20.0302 15.832Z" fill="#002D55"/>
<path d="M20.0302 9.23242C18.9155 9.23242 18.0107 10.1375 18.0107 11.2527V11.8399C18.0107 12.9551 18.9155 13.8602 20.0302 13.8602C21.1449 13.8602 22.0497 12.9551 22.0497 11.8399V11.2527C22.0497 10.1375 21.1449 9.23242 20.0302 9.23242Z" fill="#002D55"/>
<path d="M34.1045 5.83723C30.3322 2.07145 25.3415 0 20.0478 0C20.0263 0 20.0047 0 19.9818 0C14.6478 0.017509 9.63953 2.09839 5.88065 5.85878C2.11773 9.62322 0.0296187 14.6497 0 20.0114V20.0276C0.0740467 31.0569 9.01754 40 19.9562 40C19.9805 40 20.0061 40 20.0303 40C31.07 39.9596 40.0283 30.9775 40 19.9764C39.9865 14.6375 37.893 9.61649 34.1045 5.83589V5.83723ZM20.0195 37.3077C19.998 37.3077 19.9778 37.3077 19.9562 37.3077C10.4971 37.3077 2.76127 29.566 2.69261 20.0195C2.71953 15.3743 4.52762 11.0226 7.78432 7.76592C11.0383 4.51059 15.3734 2.7112 19.9913 2.69639C20.0101 2.69639 20.0289 2.69639 20.0478 2.69639C24.6239 2.69639 28.9388 4.48904 32.2036 7.74572C35.4832 11.0186 37.2953 15.3662 37.3074 19.9859C37.3316 29.5027 29.5769 37.2726 20.0209 37.3077H20.0195Z" fill="#002D55"/>
</g>
<defs>
<clipPath id="clip0_2059_24233">
<rect width="40" height="40" fill="white"/>
</clipPath>
</defs>
</svg>
