<svg width="31" height="36" viewBox="0 0 31 36" fill="none" xmlns="http://www.w3.org/2000/svg">
<g clip-path="url(#clip0_2_384)">
<path d="M30.8805 17.2351C30.4788 15.7084 29.1918 14.796 27.1348 14.6157C27.1271 14.481 27.1108 14.338 27.11 14.1951C27.0988 12.6526 27.1519 11.1064 27.068 9.5669C26.8111 4.87961 22.8907 1.00809 17.607 0.17137C11.5611 -0.789588 5.75593 2.43381 4.27272 7.6158C4.0201 8.49892 3.94987 9.43294 3.90706 10.3475C3.84711 11.6273 3.89164 12.9108 3.89164 14.1921V14.5827C3.46347 14.6576 3.07982 14.6853 2.71929 14.7863C1.24208 15.2009 0.372029 16.0923 0.0834381 17.42C0.0620292 17.515 0.0286315 17.6078 -0.00219727 17.7021V32.9375C0.063742 33.162 0.111698 33.394 0.199046 33.6111C0.680317 34.8265 1.63344 35.6003 3.06697 35.9169C3.15946 35.9371 3.24766 35.9708 3.33758 35.9977H27.6606L28.0554 35.8922C29.6405 35.4746 30.6047 34.5645 30.9216 33.1411C30.9426 33.071 30.9689 33.0022 31.0004 32.9352V17.7014C30.9601 17.5464 30.9207 17.39 30.8805 17.2351ZM17.0932 26.6591C16.8363 26.7601 16.7738 26.8784 16.7789 27.1029C16.7935 27.7989 16.79 28.4964 16.7789 29.1924C16.7703 29.9244 16.2882 30.3652 15.5055 30.3719C14.7228 30.3787 14.215 29.9274 14.2081 29.1745C14.2013 28.4777 14.1996 27.781 14.2081 27.0849C14.2081 26.8799 14.1653 26.7609 13.9178 26.6643C12.1392 25.9691 11.2785 24.4056 11.7418 22.7599C12.17 21.2256 13.7902 20.1868 15.6502 20.2497C17.5411 20.3133 19.0114 21.4569 19.3146 23.1064C19.3463 23.277 19.3463 23.4529 19.3642 23.6722C19.2983 25.0358 18.5832 26.0731 17.0966 26.6591H17.0932ZM24.5049 14.6097H6.50866C6.49924 14.4742 6.48383 14.3545 6.48297 14.2355C6.48297 12.8794 6.47012 11.5225 6.48297 10.1656C6.52664 6.31506 9.33976 3.25781 13.5907 2.42782C19.0328 1.36508 24.3157 4.89758 24.5006 9.7555C24.5597 11.3593 24.5084 12.9654 24.5084 14.6127L24.5049 14.6097Z" fill="#00F5E8"/>
</g>
<defs>
<clipPath id="clip0_2_384">
<rect width="31" height="36" fill="white"/>
</clipPath>
</defs>
</svg>
