<svg width="40" height="44" viewBox="0 0 40 44" fill="none" xmlns="http://www.w3.org/2000/svg">
<g clip-path="url(#clip0_2_389)">
<path d="M0.584343 27.2134C2.15007 22.5433 5.57467 19.3929 10.7793 17.7248C11.0677 17.6312 11.2666 17.6759 11.5079 17.8446C16.3531 21.2177 22.9312 21.2177 27.8024 17.8446C28.0427 17.6759 28.2359 17.6321 28.53 17.7282C34.4603 19.6779 38.0253 23.3664 39.1219 28.8528C39.2521 29.587 39.3131 30.3293 39.3046 31.0723C39.3267 33.4571 39.2738 35.8427 39.3228 38.2267C39.3795 40.9665 37.0901 42.7947 34.8323 43.0409C34.789 43.0452 34.7506 43.0797 34.7102 43.1008H21.0945C21.1906 40.4091 23.4474 38.4813 26.5164 38.4712C28.0013 38.467 29.4873 38.4712 30.9723 38.4712C32.0296 38.4712 32.5986 37.9652 32.6005 37.0376C32.6005 35.7328 32.6005 34.4285 32.6005 33.1248C32.6005 32.3068 32.0065 31.7376 31.1693 31.7351C30.3322 31.7326 29.7276 32.3009 29.7276 33.1155C29.7228 34.0431 29.7276 34.9632 29.7276 35.9422C29.3229 35.9422 28.9452 35.9312 28.5694 35.9422C27.2949 35.9869 26.005 35.9422 24.7526 36.1109C22.764 36.3824 21.181 37.3362 19.9334 38.7166L19.6729 39.0025C19.5768 38.908 19.4913 38.8338 19.4163 38.7495C17.7612 36.9289 15.6101 35.9802 12.9544 35.9422C11.8549 35.9262 10.7543 35.9422 9.59039 35.9422V33.7067C9.59039 33.4537 9.60096 33.2007 9.59039 32.9477C9.575 32.6214 9.41634 32.3129 9.14761 32.0869C8.87888 31.8609 8.52092 31.7348 8.14865 31.7351C7.40376 31.7351 6.74055 32.2495 6.7271 32.9157C6.69891 34.3734 6.69891 35.8317 6.7271 37.2906C6.74152 37.9737 7.38453 38.4611 8.19959 38.4661C9.73744 38.4746 11.2657 38.4661 12.7997 38.4661C15.8677 38.4763 18.1274 40.4057 18.2206 43.0958H4.60294C3.84171 42.8293 3.01896 42.6513 2.33461 42.2778C1.07454 41.5913 0.343094 40.5372 0.0845413 39.242C0.0634079 39.1767 0.03508 39.1135 -4.19617e-05 39.0531V29.7998C0.190269 28.9362 0.302727 28.0533 0.584343 27.2134ZM12.8247 29.1791C14.7412 30.9061 16.6885 32.6079 18.6397 34.3046C19.2385 34.8249 20.0708 34.8274 20.6581 34.313C22.6093 32.6163 24.5883 30.9399 26.4664 29.1816C27.9081 27.8324 28.1503 26.2015 27.2757 24.5352C26.401 22.8688 24.8382 22.0644 22.7582 22.0635C21.7583 22.06 20.7866 22.354 20.0016 22.8975C19.7412 23.0738 19.5931 23.0839 19.3125 22.9076C17.7227 21.9092 16.0013 21.7507 14.2539 22.5164C12.5065 23.2821 11.6386 24.5934 11.5627 26.0716C11.5713 27.4049 11.9529 28.3932 12.8247 29.1791Z" fill="#00F5E8"/>
<path d="M29.8199 8.90244C29.8165 7.72957 29.5497 6.56879 29.0346 5.48646C28.5196 4.40413 27.7665 3.42148 26.8183 2.59469C25.8701 1.76789 24.7455 1.11317 23.5087 0.66794C22.272 0.222714 20.9473 -0.00427922 19.6105 -6.44357e-05C14.0185 0.0176444 9.48281 4.02575 9.49338 8.9387C9.4964 10.1119 9.76299 11.2731 10.2779 12.3559C10.7928 13.4387 11.5459 14.4218 12.4942 15.249C13.4425 16.0762 14.5674 16.7313 15.8044 17.1768C17.0415 17.6223 18.3665 17.8495 19.7038 17.8454C25.2948 17.8277 29.8295 13.8188 29.8199 8.90244Z" fill="#00F5E8"/>
<path d="M19.6702 31.6246C20.2468 31.1186 20.7918 30.6329 21.3426 30.1497C22.2787 29.3267 23.2155 28.5039 24.153 27.6814C25.0488 26.8913 25.1141 25.8136 24.302 25.101C23.4686 24.3648 22.2614 24.4154 21.3301 25.2258C21.1148 25.4138 20.9072 25.6086 20.6851 25.7891C20.0508 26.3027 19.2588 26.3018 18.6225 25.784C18.3341 25.5462 18.0641 25.2823 17.769 25.047C17.3914 24.7369 16.8901 24.5693 16.3731 24.5803C15.856 24.5914 15.3646 24.7802 15.0047 25.106C14.2752 25.7613 14.2281 26.8348 14.972 27.5026C16.4993 28.8747 18.0621 30.218 19.6702 31.6246Z" fill="#00F5E8"/>
</g>
<defs>
<clipPath id="clip0_2_389">
<rect width="39.3238" height="43.1" fill="white" transform="matrix(-1 0 0 1 39.3239 0)"/>
</clipPath>
</defs>
</svg>
