<svg width="40" height="59" viewBox="0 0 40 59" fill="none" xmlns="http://www.w3.org/2000/svg">
<path d="M28.8122 7.30026L21.7765 0.300349C21.6881 0.202641 21.5793 0.125212 21.4579 0.0734153C21.3364 0.0216183 21.2051 -0.00331052 21.0729 0.000352399H11.0219C10.4893 0.00193511 9.97889 0.213154 9.60225 0.58788C9.22561 0.962605 9.01331 1.47039 9.01172 2.00033V26C9.01331 26.53 9.22561 27.0377 9.60225 27.4125C9.97889 27.7872 10.4893 27.9984 11.0219 28H27.1036C27.6362 27.9984 28.1466 27.7872 28.5232 27.4125C28.8999 27.0377 29.1122 26.53 29.1138 26V8.00025C29.1174 7.86881 29.0924 7.73814 29.0403 7.61728C28.9883 7.49642 28.9104 7.38826 28.8122 7.30026V7.30026ZM21.0729 2.40032L26.7015 8.00025H21.0729V2.40032ZM27.1036 26H11.0219V2.00033H19.0627V8.00025C19.0643 8.53019 19.2766 9.03797 19.6533 9.4127C20.0299 9.78743 20.5403 9.99864 21.0729 10.0002H27.1036V26Z" fill="black"/>
<path d="M11.1406 39.6348C11.1406 40.5996 10.9551 41.4062 10.584 42.0547C10.2168 42.6992 9.68359 43.1855 8.98438 43.5137C8.28516 43.8379 7.44336 44 6.45898 44H4.0332V35.4336H6.72266C7.62109 35.4336 8.40039 35.5938 9.06055 35.9141C9.7207 36.2305 10.2324 36.7012 10.5957 37.3262C10.959 37.9473 11.1406 38.7168 11.1406 39.6348ZM9.25391 39.6816C9.25391 39.0488 9.16016 38.5293 8.97266 38.123C8.78906 37.7129 8.51562 37.4102 8.15234 37.2148C7.79297 37.0195 7.34766 36.9219 6.81641 36.9219H5.84961V42.5H6.62891C7.51562 42.5 8.17383 42.2637 8.60352 41.791C9.03711 41.3184 9.25391 40.6152 9.25391 39.6816ZM20.6914 39.7051C20.6914 40.3652 20.6094 40.9668 20.4453 41.5098C20.2812 42.0488 20.0312 42.5137 19.6953 42.9043C19.3633 43.2949 18.9414 43.5957 18.4297 43.8066C17.918 44.0137 17.3125 44.1172 16.6133 44.1172C15.9141 44.1172 15.3086 44.0137 14.7969 43.8066C14.2852 43.5957 13.8613 43.2949 13.5254 42.9043C13.1934 42.5137 12.9453 42.0469 12.7812 41.5039C12.6172 40.9609 12.5352 40.3574 12.5352 39.6934C12.5352 38.8066 12.6797 38.0352 12.9688 37.3789C13.2617 36.7188 13.7109 36.207 14.3164 35.8438C14.9219 35.4805 15.6914 35.2988 16.625 35.2988C17.5547 35.2988 18.3184 35.4805 18.916 35.8438C19.5176 36.207 19.9629 36.7188 20.252 37.3789C20.5449 38.0391 20.6914 38.8145 20.6914 39.7051ZM14.4395 39.7051C14.4395 40.3027 14.5137 40.8184 14.6621 41.252C14.8145 41.6816 15.0508 42.0137 15.3711 42.248C15.6914 42.4785 16.1055 42.5938 16.6133 42.5938C17.1289 42.5938 17.5469 42.4785 17.8672 42.248C18.1875 42.0137 18.4199 41.6816 18.5645 41.252C18.7129 40.8184 18.7871 40.3027 18.7871 39.7051C18.7871 38.8066 18.6191 38.0996 18.2832 37.584C17.9473 37.0684 17.3945 36.8105 16.625 36.8105C16.1133 36.8105 15.6953 36.9277 15.3711 37.1621C15.0508 37.3926 14.8145 37.7246 14.6621 38.1582C14.5137 38.5879 14.4395 39.1035 14.4395 39.7051ZM26.1055 36.8223C25.7578 36.8223 25.4492 36.8906 25.1797 37.0273C24.9141 37.1602 24.6895 37.3535 24.5059 37.6074C24.3262 37.8613 24.1895 38.168 24.0957 38.5273C24.002 38.8867 23.9551 39.291 23.9551 39.7402C23.9551 40.3457 24.0293 40.8633 24.1777 41.293C24.3301 41.7188 24.5645 42.0449 24.8809 42.2715C25.1973 42.4941 25.6055 42.6055 26.1055 42.6055C26.4531 42.6055 26.8008 42.5664 27.1484 42.4883C27.5 42.4102 27.8809 42.2988 28.291 42.1543V43.6777C27.9121 43.834 27.5391 43.9453 27.1719 44.0117C26.8047 44.082 26.3926 44.1172 25.9355 44.1172C25.0527 44.1172 24.3262 43.9355 23.7559 43.5723C23.1895 43.2051 22.7695 42.6934 22.4961 42.0371C22.2227 41.377 22.0859 40.6074 22.0859 39.7285C22.0859 39.0801 22.1738 38.4863 22.3496 37.9473C22.5254 37.4082 22.7832 36.9414 23.123 36.5469C23.4629 36.1523 23.8828 35.8477 24.3828 35.6328C24.8828 35.418 25.457 35.3105 26.1055 35.3105C26.5312 35.3105 26.957 35.3652 27.3828 35.4746C27.8125 35.5801 28.2227 35.7266 28.6133 35.9141L28.0273 37.3906C27.707 37.2383 27.3848 37.1055 27.0605 36.9922C26.7363 36.8789 26.418 36.8223 26.1055 36.8223ZM37.0449 44H34.9707L32.9785 40.7598L30.9863 44H29.041L31.8828 39.582L29.2227 35.4336H31.2266L33.0723 38.5156L34.8828 35.4336H36.8398L34.1504 39.6816L37.0449 44Z" fill="black"/>
</svg>
