<svg width="35" height="39" viewBox="0 0 35 39" fill="none" xmlns="http://www.w3.org/2000/svg">
<path d="M26.3142 29.3786C22.8356 30.161 19.2829 30.3793 15.697 30.2352C12.7288 30.1165 9.80903 29.749 6.97607 28.9458C5.08148 28.4091 3.2643 27.7254 1.7653 26.5376C1.34928 26.2087 0.999634 25.8145 0.561503 25.3907C0.401564 25.7886 0.243324 26.1813 0.0859375 26.574V31.9189C0.659336 33.8624 2.35741 34.8801 4.2469 35.7123C6.606 36.7516 9.14035 37.3039 11.7411 37.6268C12.9159 37.7753 14.1036 37.8384 15.2852 37.9431C15.4094 37.9542 15.5311 37.9847 15.6545 38.0062H19.3977C20.2536 37.9319 21.1103 37.8674 21.9652 37.7835C25.0168 37.4865 27.9893 36.9179 30.7678 35.7309C31.9827 35.2112 33.098 34.5713 33.9836 33.6523C34.4779 33.1401 34.7399 32.5388 34.9662 31.9174V26.574L34.4822 25.3602C32.397 27.7885 29.4041 28.6837 26.3142 29.3786Z" fill="#00F5E8"/>
<path d="M28.1365 19.3672C23.9628 20.555 19.6614 20.8564 15.2997 20.6596C12.4455 20.5305 9.64059 20.1548 6.91907 19.3746C5.05255 18.8394 3.2609 18.1631 1.78401 16.9991C1.35864 16.6621 0.998783 16.2568 0.561503 15.841C0.403265 16.2241 0.244742 16.6096 0.0859375 16.9976V22.3426C0.642321 24.2994 2.34805 25.3186 4.2418 26.1486C6.97097 27.3453 9.91282 27.8946 12.9193 28.2116C14.9466 28.4233 16.9902 28.4926 19.0302 28.4187C22.6441 28.2925 26.1926 27.833 29.57 26.6371C31.2213 26.0536 32.7713 25.3216 33.9598 24.1131C34.4703 23.5934 34.745 22.9825 34.962 22.3418V16.9976C34.802 16.6086 34.6421 16.2204 34.4634 15.7876C32.8709 17.7697 30.5671 18.6746 28.1365 19.3672Z" fill="#00F5E8"/>
<path d="M34.5137 6.56311C33.9675 8.07676 32.5833 8.6996 31.1711 9.26081C29.0281 10.1123 26.7472 10.5362 24.4273 10.8331C20.4971 11.3313 16.5114 11.4024 12.5612 11.0447C9.5972 10.7826 6.67066 10.335 3.92022 9.27418C3.29972 9.03382 2.70473 8.74615 2.14217 8.41453C1.40288 7.98174 0.787796 7.43686 0.509604 6.62398L0.0859375 7.64397V13.0631C0.681455 14.9984 2.38293 16.0169 4.27583 16.8491C6.68172 17.9025 9.26456 18.4444 11.9112 18.7792C15.4659 19.2277 19.0743 19.249 22.6356 18.8423C25.4558 18.5239 28.208 17.9597 30.7781 16.8521C31.9801 16.3324 33.0844 15.6985 33.9683 14.7958C34.4677 14.2858 34.7263 13.6823 34.9662 13.0646V7.64397L34.5137 6.56311Z" fill="#00F5E8"/>
<path d="M2.06135 6.90164C3.12903 7.61726 4.37537 8.03669 5.64722 8.39228C8.22411 9.1131 10.8784 9.46497 13.5676 9.65427C16.5786 9.87198 19.6063 9.84266 22.611 9.56668C25.6336 9.28681 28.6214 8.83769 31.3999 7.69818C32.19 7.3673 32.9268 6.94724 33.5914 6.4488C34.8199 5.5372 34.7825 4.29598 33.6068 3.33093C32.7007 2.58858 31.6118 2.11644 30.4709 1.73413C28.1569 0.957633 25.7425 0.540432 23.2864 0.302137C22.1473 0.191527 20.9997 0.13882 19.8563 0.0571613C19.7312 0.0482531 19.607 0.0193011 19.4828 0H15.4843C14.7952 0.0494901 14.1064 0.0989801 13.4179 0.14847C10.4309 0.371175 7.48652 0.780211 4.66462 1.70741C3.49315 2.09194 2.37698 2.56779 1.44797 3.32573C0.518967 4.08367 0.256937 5.00864 0.886484 5.84527C1.1919 6.24837 1.61727 6.6047 2.06135 6.90164Z" fill="#00F5E8"/>
</svg>
