<svg width="25" height="47" viewBox="0 0 25 47" fill="none" xmlns="http://www.w3.org/2000/svg">
<path d="M21.8864 7.30035L14.8507 0.300352C14.7623 0.202644 14.6536 0.125214 14.5321 0.0734162C14.4106 0.0216186 14.2793 -0.00331056 14.1472 0.000352403H4.09614C3.56349 0.00193513 3.05311 0.213157 2.67647 0.587887C2.29983 0.962617 2.08753 1.47041 2.08594 2.00035V26.0004C2.08753 26.5303 2.29983 27.0381 2.67647 27.4128C3.05311 27.7875 3.56349 27.9988 4.09614 28.0004H20.1778C20.7104 27.9988 21.2208 27.7875 21.5974 27.4128C21.9741 27.0381 22.1864 26.5303 22.188 26.0004V8.00035C22.1917 7.86891 22.1666 7.73824 22.1145 7.61738C22.0625 7.49652 21.9846 7.38835 21.8864 7.30035ZM14.1472 2.40035L19.7757 8.00035H14.1472V2.40035ZM20.1778 26.0004H4.09614V2.00035H12.137V8.00035C12.1385 8.5303 12.3508 9.03809 12.7275 9.41282C13.1041 9.78755 13.6145 9.99877 14.1472 10.0004H20.1778V26.0004Z" fill="black"/>
<path d="M9.44404 44.0004H7.36982L5.37763 40.7601L3.38544 44.0004H1.44013L4.28193 39.5824L1.62177 35.434H3.62568L5.47138 38.516L7.28193 35.434H9.23896L6.54951 39.682L9.44404 44.0004ZM10.5222 44.0004V35.434H12.3386V42.5004H15.8132V44.0004H10.5222ZM22.364 41.6215C22.364 42.3949 22.0847 43.0043 21.5261 43.4496C20.9714 43.8949 20.1979 44.1176 19.2058 44.1176C18.2917 44.1176 17.4831 43.9457 16.78 43.6019V41.9144C17.3581 42.1722 17.8464 42.3539 18.2448 42.4594C18.6472 42.5648 19.0143 42.6176 19.3464 42.6176C19.7448 42.6176 20.0495 42.5414 20.2604 42.389C20.4753 42.2367 20.5827 42.0101 20.5827 41.7094C20.5827 41.5414 20.5358 41.3929 20.4421 41.264C20.3483 41.1312 20.2097 41.0043 20.0261 40.8832C19.8464 40.7621 19.4772 40.5687 18.9186 40.3031C18.3952 40.057 18.0026 39.8207 17.7409 39.5941C17.4792 39.3676 17.2702 39.1039 17.114 38.8031C16.9577 38.5023 16.8796 38.1508 16.8796 37.7484C16.8796 36.9906 17.1354 36.3949 17.6472 35.9613C18.1628 35.5277 18.8737 35.3109 19.78 35.3109C20.2253 35.3109 20.6491 35.3636 21.0515 35.4691C21.4577 35.5746 21.8815 35.723 22.3229 35.9144L21.737 37.3265C21.28 37.139 20.9011 37.0082 20.6003 36.934C20.3034 36.8597 20.0104 36.8226 19.7214 36.8226C19.3776 36.8226 19.114 36.9027 18.9304 37.0629C18.7468 37.223 18.655 37.432 18.655 37.6898C18.655 37.85 18.6921 37.9906 18.7663 38.1117C18.8405 38.2289 18.9577 38.3441 19.1179 38.4574C19.2819 38.5668 19.6667 38.766 20.2722 39.0551C21.0729 39.4379 21.6218 39.8226 21.9186 40.2094C22.2155 40.5922 22.364 41.0629 22.364 41.6215Z" fill="black"/>
</svg>
