<svg width="25" height="47" viewBox="0 0 25 47" fill="none" xmlns="http://www.w3.org/2000/svg">
<path d="M21.8904 7.30035L14.8546 0.300352C14.7662 0.202644 14.6575 0.125214 14.536 0.0734162C14.4145 0.0216186 14.2832 -0.00331056 14.1511 0.000352403H4.10005C3.5674 0.00193513 3.05702 0.213157 2.68038 0.587887C2.30373 0.962617 2.09143 1.47041 2.08984 2.00035V26.0004C2.09143 26.5303 2.30373 27.0381 2.68038 27.4128C3.05702 27.7875 3.5674 27.9988 4.10005 28.0004H20.1817C20.7143 27.9988 21.2247 27.7875 21.6013 27.4128C21.978 27.0381 22.1903 26.5303 22.1919 26.0004V8.00035C22.1956 7.86891 22.1705 7.73824 22.1184 7.61738C22.0664 7.49652 21.9886 7.38835 21.8904 7.30035ZM14.1511 2.40035L19.7796 8.00035H14.1511V2.40035ZM20.1817 26.0004H4.10005V2.00035H12.1409V8.00035C12.1425 8.5303 12.3548 9.03809 12.7314 9.41282C13.108 9.78755 13.6184 9.99877 14.1511 10.0004H20.1817V26.0004Z" fill="black"/>
<path d="M9.57294 44.0004H3.19794V42.8226L7.30536 36.934H3.30927V35.434H9.46161V36.6058L5.36005 42.5004H9.57294V44.0004ZM10.9382 44.0004V35.434H12.7546V44.0004H10.9382ZM17.6472 35.434C18.7526 35.434 19.5593 35.6722 20.0671 36.1488C20.5749 36.6215 20.8288 37.2738 20.8288 38.1058C20.8288 38.4808 20.7722 38.8402 20.6589 39.184C20.5456 39.5238 20.3601 39.8265 20.1022 40.0922C19.8483 40.3578 19.5085 40.5687 19.0827 40.725C18.6569 40.8773 18.1315 40.9535 17.5065 40.9535H16.7272V44.0004H14.9108V35.434H17.6472ZM17.5534 36.9222H16.7272V39.4652H17.3249C17.6647 39.4652 17.9597 39.4203 18.2097 39.3304C18.4597 39.2406 18.653 39.1 18.7897 38.9086C18.9265 38.7172 18.9948 38.4711 18.9948 38.1703C18.9948 37.7484 18.8776 37.4359 18.6433 37.2328C18.4089 37.0258 18.0456 36.9222 17.5534 36.9222Z" fill="black"/>
</svg>
