<svg width="25" height="47" viewBox="0 0 25 47" fill="none" xmlns="http://www.w3.org/2000/svg">
<path d="M21.8122 7.30035L14.7765 0.300352C14.6881 0.202644 14.5793 0.125214 14.4579 0.0734163C14.3364 0.0216186 14.2051 -0.00331056 14.0729 0.000352403H4.02192C3.48927 0.00193513 2.97889 0.213157 2.60225 0.587887C2.22561 0.962617 2.01331 1.47041 2.01172 2.00035V26.0004C2.01331 26.5303 2.22561 27.0381 2.60225 27.4128C2.97889 27.7875 3.48927 27.9988 4.02192 28.0004H20.1036C20.6362 27.9988 21.1466 27.7875 21.5232 27.4128C21.8999 27.0381 22.1122 26.5303 22.1138 26.0004V8.00035C22.1174 7.86891 22.0924 7.73824 22.0403 7.61738C21.9883 7.49652 21.9104 7.38835 21.8122 7.30035V7.30035ZM14.0729 2.40035L19.7015 8.00035H14.0729V2.40035ZM20.1036 26.0004H4.02192V2.00035H12.0627V8.00035C12.0643 8.5303 12.2766 9.03809 12.6533 9.41282C13.0299 9.78755 13.5403 9.99877 14.0729 10.0004H20.1036V26.0004Z" fill="black"/>
<path d="M1.14521 44.0004V35.434H2.96161V44.0004H1.14521ZM8.74482 44.0004L6.68232 37.2797H6.62958C6.6374 37.4398 6.64911 37.682 6.66474 38.0062C6.68427 38.3265 6.70185 38.6683 6.71747 39.0316C6.7331 39.3949 6.74091 39.723 6.74091 40.016V44.0004H5.11786V35.434H7.59052L9.61786 41.9847H9.65302L11.8034 35.434H14.2761V44.0004H12.5827V39.9457C12.5827 39.6761 12.5866 39.3656 12.5944 39.014C12.6061 38.6625 12.6198 38.3285 12.6354 38.0121C12.6511 37.6918 12.6628 37.4515 12.6706 37.2914H12.6179L10.4089 44.0004H8.74482ZM19.6901 39.1898H23.0886V43.6312C22.6393 43.7797 22.1726 43.8988 21.6882 43.9886C21.2038 44.0746 20.655 44.1176 20.0417 44.1176C19.1901 44.1176 18.4675 43.9496 17.8737 43.6136C17.28 43.2777 16.8288 42.7816 16.5202 42.1254C16.2116 41.4691 16.0573 40.6625 16.0573 39.7054C16.0573 38.807 16.2292 38.0297 16.5729 37.3734C16.9206 36.7172 17.4265 36.2094 18.0905 35.85C18.7585 35.4906 19.5729 35.3109 20.5339 35.3109C20.987 35.3109 21.4343 35.3597 21.8757 35.4574C22.3171 35.5551 22.7175 35.682 23.0768 35.8383L22.4733 37.2914C22.2116 37.1586 21.9128 37.0472 21.5768 36.9574C21.2409 36.8676 20.8893 36.8226 20.5222 36.8226C19.9948 36.8226 19.5358 36.9437 19.1452 37.1859C18.7585 37.4281 18.4577 37.7679 18.2429 38.2054C18.0319 38.639 17.9265 39.1508 17.9265 39.7406C17.9265 40.2992 18.0026 40.7953 18.155 41.2289C18.3073 41.6586 18.5476 41.9965 18.8757 42.2426C19.2038 42.4847 19.6315 42.6058 20.1589 42.6058C20.4167 42.6058 20.6335 42.5941 20.8093 42.5707C20.989 42.5433 21.1569 42.516 21.3132 42.4886V40.7015H19.6901V39.1898Z" fill="black"/>
</svg>
