<svg width="40" height="45" viewBox="0 0 40 45" fill="none" xmlns="http://www.w3.org/2000/svg">
<path d="M8.27398 42V33.4336H10.0904V40.5H13.565V42H8.27398ZM14.0991 42V33.4336H15.9155V42H14.0991ZM24.7114 42H22.4028L18.6763 35.5195H18.6235C18.6977 36.6641 18.7348 37.4805 18.7348 37.9688V42H17.1118V33.4336H19.4028L23.1235 39.8496H23.1645C23.1059 38.7363 23.0766 37.9492 23.0766 37.4883V33.4336H24.7114V42ZM32.8041 42H30.7416L28.4975 38.3906L27.7299 38.9414V42H25.9135V33.4336H27.7299V37.3535L28.4448 36.3457L30.7651 33.4336H32.7807L29.7924 37.2246L32.8041 42Z" fill="black"/>
<path d="M27.5979 0.266936C27.2337 0.142736 26.8456 0.0871249 26.4683 0C26.157 0 25.8452 0 25.5339 0C25.4908 0.0143663 25.4492 0.036611 25.4051 0.0421721C24.3378 0.17703 23.395 0.589483 22.6245 1.33375C21.4485 2.46916 20.2904 3.62217 19.1327 4.77611C18.7151 5.19227 18.718 5.79612 19.1116 6.18587C19.5063 6.57654 20.1083 6.57422 20.5362 6.16918C20.8568 5.86564 21.1649 5.54911 21.479 5.23908C22.3286 4.40166 23.153 3.5369 24.034 2.73331C25.4178 1.47139 27.633 1.82731 28.587 3.42799C29.2995 4.62411 29.0977 6.06584 28.0641 7.09141C26.2113 8.9303 24.3542 10.765 22.4985 12.6011C22.2617 12.8352 22.0323 13.0785 21.7804 13.2953C21.0675 13.9085 20.2356 14.1281 19.3059 13.984C18.6604 13.8839 18.1347 13.5604 17.6553 13.1336C17.2391 12.7629 16.6324 12.8032 16.2701 13.1939C15.9003 13.5924 15.9082 14.1814 16.3062 14.5684C17.1961 15.4341 18.2681 15.9216 19.5128 15.9911C21.045 16.0764 22.3455 15.5458 23.4278 14.4729C25.4356 12.482 27.449 10.4972 29.4521 8.50163C29.725 8.23006 29.9853 7.93439 30.1932 7.61277C31.9594 4.87529 30.7062 1.32819 27.5993 0.267399L27.5979 0.266936Z" fill="black"/>
<path d="M18.3173 17.917C17.8807 17.7922 17.5292 17.9414 17.2205 18.2457C16.2317 19.2216 15.2652 20.2221 14.2428 21.1626C12.8149 22.4764 10.5115 22.1155 9.51247 20.4611C8.76767 19.2279 8.97283 17.7246 10.0409 16.667C11.8217 14.9036 13.6069 13.145 15.3911 11.3854C15.5914 11.1882 15.7859 10.9838 16.0002 10.8024C16.7373 10.1787 17.5924 9.95169 18.5492 10.0961C19.2288 10.1988 19.7801 10.5395 20.2848 10.9862C20.7082 11.361 21.3271 11.3187 21.7053 10.9248C22.0938 10.5203 22.1117 9.88211 21.6781 9.50784C21.2619 9.14893 20.8181 8.79097 20.3271 8.55201C18.2507 7.54195 15.9667 7.93974 14.3074 9.56734C12.3925 11.4464 10.4877 13.335 8.57807 15.2193C7.96211 15.8273 7.49783 16.5298 7.24648 17.3565C7.14293 17.6972 7.0807 18.0499 7 18.3973V19.355C7.05931 19.6338 7.1089 19.9155 7.17939 20.1919C8.11136 23.8559 12.8028 25.2561 15.6138 22.6909C16.6935 21.7058 17.7067 20.6496 18.7495 19.6252C18.7835 19.5916 18.8141 19.5537 18.8438 19.5158C19.2915 18.9457 19.0193 18.1166 18.3173 17.9165V17.917Z" fill="black"/>
</svg>
