<svg width="25" height="47" viewBox="0 0 25 47" fill="none" xmlns="http://www.w3.org/2000/svg">
<path d="M21.8864 7.30035L14.8507 0.300352C14.7623 0.202644 14.6536 0.125214 14.5321 0.0734162C14.4106 0.0216186 14.2793 -0.00331056 14.1472 0.000352403H4.09614C3.56349 0.00193513 3.05311 0.213157 2.67647 0.587887C2.29983 0.962617 2.08753 1.47041 2.08594 2.00035V26.0004C2.08753 26.5303 2.29983 27.0381 2.67647 27.4128C3.05311 27.7875 3.56349 27.9988 4.09614 28.0004H20.1778C20.7104 27.9988 21.2208 27.7875 21.5974 27.4128C21.9741 27.0381 22.1864 26.5303 22.188 26.0004V8.00035C22.1917 7.86891 22.1666 7.73824 22.1145 7.61738C22.0625 7.49652 21.9846 7.38835 21.8864 7.30035ZM14.1472 2.40035L19.7757 8.00035H14.1472V2.40035ZM20.1778 26.0004H4.09614V2.00035H12.137V8.00035C12.1385 8.5303 12.3508 9.03809 12.7275 9.41282C13.1041 9.78755 13.6145 9.99877 14.1472 10.0004H20.1778V26.0004Z" fill="black"/>
<path d="M4.4499 35.434C5.55536 35.434 6.36201 35.6722 6.86982 36.1488C7.37763 36.6215 7.63154 37.2738 7.63154 38.1058C7.63154 38.4808 7.5749 38.8402 7.46161 39.184C7.34833 39.5238 7.16279 39.8265 6.90497 40.0922C6.65107 40.3578 6.31122 40.5687 5.88544 40.725C5.45966 40.8773 4.93427 40.9535 4.30927 40.9535H3.52997V44.0004H1.71357V35.434H4.4499ZM4.35615 36.9222H3.52997V39.4652H4.12763C4.46747 39.4652 4.7624 39.4203 5.0124 39.3304C5.2624 39.2406 5.45576 39.1 5.59247 38.9086C5.72919 38.7172 5.79755 38.4711 5.79755 38.1703C5.79755 37.7484 5.68036 37.4359 5.44599 37.2328C5.21161 37.0258 4.84833 36.9222 4.35615 36.9222ZM16.3561 39.6351C16.3561 40.6 16.1706 41.4066 15.7995 42.0551C15.4323 42.6996 14.8991 43.1859 14.1999 43.514C13.5007 43.8383 12.6589 44.0004 11.6745 44.0004H9.24872V35.434H11.9382C12.8366 35.434 13.6159 35.5941 14.2761 35.9144C14.9362 36.2308 15.4479 36.7015 15.8112 37.3265C16.1745 37.9476 16.3561 38.7172 16.3561 39.6351ZM14.4694 39.682C14.4694 39.0492 14.3757 38.5297 14.1882 38.1234C14.0046 37.7133 13.7311 37.4105 13.3679 37.2152C13.0085 37.0199 12.5632 36.9222 12.0319 36.9222H11.0651V42.5004H11.8444C12.7311 42.5004 13.3893 42.264 13.819 41.7914C14.2526 41.3187 14.4694 40.6156 14.4694 39.682ZM19.9186 44.0004H18.1315V35.434H23.0417V36.9222H19.9186V39.1312H22.8249V40.6136H19.9186V44.0004Z" fill="black"/>
</svg>
