<svg width="16" height="16" viewBox="0 0 16 16" fill="none" xmlns="http://www.w3.org/2000/svg">
<g clip-path="url(#clip0_2_1628)">
<path d="M15.699 14.5116C14.5503 13.3607 13.4017 12.2097 12.2532 11.0584C12.1075 10.9128 11.936 10.7919 11.8184 10.6944C12.1422 10.1816 12.4545 9.74969 12.6976 9.28344C13.2952 8.13781 13.4943 6.91531 13.3282 5.64406C13.1395 4.20156 12.5031 2.95844 11.4468 1.92781C10.3786 0.885625 9.08543 0.255625 7.57373 0.059063C7.42483 0.0400005 7.27625 0.0196875 7.12767 0H6.25367C5.97237 0.040625 5.68881 0.0709375 5.4101 0.125C4.02529 0.388438 2.84443 1.01844 1.86879 2C0.905122 2.96875 0.302384 4.12063 0.0858266 5.44812C-0.119401 6.70687 0.0418023 7.92531 0.586919 9.09156C1.1029 10.195 1.87526 11.0959 2.90658 11.7791C4.06705 12.5484 5.35539 12.9353 6.76901 12.9166C8.07628 12.9072 9.35117 12.5229 10.4317 11.8125C10.4583 11.7953 10.4861 11.7812 10.5508 11.7319C10.583 11.786 10.6197 11.8376 10.6606 11.8859C11.866 13.0976 13.073 14.3096 14.2815 15.5219C14.4799 15.7222 14.678 15.9163 14.9613 16H15.285C15.5893 15.9041 15.8401 15.7478 15.9483 15.4375C16.0735 15.0781 15.9648 14.7766 15.699 14.5116ZM6.69067 11.2322C3.96541 11.2272 1.75322 9.09062 1.75063 6.46187C1.74804 3.83312 3.96444 1.69281 6.68711 1.68719C9.40978 1.68156 11.6184 3.81219 11.6343 6.45063C11.6501 9.07313 9.41236 11.2375 6.69067 11.2322Z" fill="#002D55"/>
</g>
<defs>
<clipPath id="clip0_2_1628">
<rect width="16" height="16" fill="white"/>
</clipPath>
</defs>
</svg>
