<svg width="40" height="45" viewBox="0 0 40 45" fill="none" xmlns="http://www.w3.org/2000/svg">
<path d="M9.41609 33.4336H11.2501L8.33797 42H6.3575L3.45125 33.4336H5.28523L6.89656 38.5312C6.98641 38.832 7.0782 39.1836 7.17195 39.5859C7.26961 39.9844 7.33016 40.2617 7.35359 40.418C7.39656 40.0586 7.54305 39.4297 7.79305 38.5312L9.41609 33.4336ZM11.3741 42V33.4336H13.1905V42H11.3741ZM21.4941 37.6348C21.4941 39.0449 21.0918 40.125 20.2871 40.875C19.4863 41.625 18.3281 42 16.8125 42H14.3867V33.4336H17.0762C18.4746 33.4336 19.5605 33.8027 20.334 34.541C21.1074 35.2793 21.4941 36.3105 21.4941 37.6348ZM19.6074 37.6816C19.6074 35.8418 18.7949 34.9219 17.1699 34.9219H16.2031V40.5H16.9824C18.7324 40.5 19.6074 39.5605 19.6074 37.6816ZM27.2431 42H22.3095V33.4336H27.2431V34.9219H24.1259V36.8027H27.0263V38.291H24.1259V40.5H27.2431V42ZM35.8515 37.7051C35.8515 39.123 35.4999 40.2129 34.7968 40.9746C34.0937 41.7363 33.0859 42.1172 31.7734 42.1172C30.4609 42.1172 29.453 41.7363 28.7499 40.9746C28.0468 40.2129 27.6952 39.1191 27.6952 37.6934C27.6952 36.2676 28.0468 35.1797 28.7499 34.4297C29.457 33.6758 30.4687 33.2988 31.7851 33.2988C33.1015 33.2988 34.1073 33.6777 34.8027 34.4355C35.5019 35.1934 35.8515 36.2832 35.8515 37.7051ZM29.5995 37.7051C29.5995 38.6621 29.7812 39.3828 30.1445 39.8672C30.5077 40.3516 31.0507 40.5938 31.7734 40.5938C33.2226 40.5938 33.9472 39.6309 33.9472 37.7051C33.9472 35.7754 33.2265 34.8105 31.7851 34.8105C31.0624 34.8105 30.5175 35.0547 30.1503 35.543C29.7831 36.0273 29.5995 36.748 29.5995 37.7051Z" fill="black"/>
<path d="M31.8083 14.6529C31.1526 18.2033 29.3078 20.9782 26.3086 22.9748C24.5421 24.1514 22.5828 24.7997 20.4639 24.9596C20.4008 24.9645 20.3386 24.9861 20.276 24.9998H18.7126C18.415 24.9636 18.1165 24.9327 17.82 24.8911C15.3293 24.5394 13.1081 23.5682 11.2432 21.8794C7.96465 18.9097 6.58177 15.195 7.10928 10.8075C7.40974 8.31042 8.44274 6.10885 10.1217 4.23459C12.5287 1.54672 15.5539 0.125488 19.1618 0.00709152C21.7548 -0.0780354 24.1604 0.594666 26.3228 2.034C29.3166 4.02617 31.1536 6.80112 31.8083 10.3437C31.8925 10.7977 31.937 11.2591 32.0002 11.717V13.2796C31.937 13.7375 31.8925 14.1984 31.8083 14.6524V14.6529ZM19.498 1.25122C13.2818 1.24682 8.24113 6.28449 8.24309 12.5007C8.24456 18.7189 13.2867 23.7551 19.5024 23.7458C25.7278 23.737 30.7577 18.6984 30.7455 12.4841C30.7333 6.2703 25.7121 1.25514 19.4984 1.25073L19.498 1.25122Z" fill="black"/>
<path d="M23.7926 13.3025C21.6009 14.7643 19.4072 16.2223 17.2173 17.687C16.8954 17.9023 16.5695 17.9948 16.2122 17.8035C15.8472 17.6088 15.7346 17.2815 15.7366 16.8842C15.743 15.4282 15.739 13.9723 15.739 12.5163C15.739 11.0442 15.7425 9.57159 15.7371 8.09947C15.7356 7.71151 15.8496 7.39204 16.2029 7.19928C16.5577 7.00505 16.8856 7.08822 17.2085 7.30398C19.3983 8.76826 21.5921 10.2267 23.7838 11.688C24.4718 12.1469 24.4758 12.846 23.7926 13.302V13.3025ZM17.006 8.67286V16.324C18.9256 15.0447 20.8194 13.7824 22.7459 12.4992C20.8258 11.2193 18.9359 9.95955 17.006 8.67286Z" fill="black"/>
</svg>
