<svg width="50" height="57" viewBox="0 0 50 57" fill="none" xmlns="http://www.w3.org/2000/svg">
<g clip-path="url(#clip0_2_354)">
<path d="M23.7115 14.0511C17.3635 14.4152 12.0712 17.1419 8.03209 21.9881C2.34223 28.8208 0.91673 36.5983 3.50494 45.0863C4.32645 47.7745 5.68902 50.1987 7.43142 52.4095C7.92499 53.0365 8.55989 53.2895 9.33061 53.0981C10.066 52.9188 10.4845 52.4052 10.6291 51.6814C10.7583 51.0281 10.4348 50.521 10.0572 50.026C3.69485 41.6953 4.55943 30.1176 12.0855 22.7932C18.0238 17.0165 27.2018 15.7846 34.3591 19.9115C39.7696 23.0297 42.9243 27.8111 44.2261 33.8408C44.6435 35.7788 44.9041 37.7587 44.5574 39.7341C43.9821 43.0504 40.3228 44.8179 37.4376 43.1945C35.8111 42.2793 34.9808 40.8329 34.8406 38.9807C34.7412 37.6696 34.8107 36.3101 34.4784 35.0584C33.4692 31.245 30.9914 28.746 27.0892 27.9518C23.2356 27.1665 20.0688 28.5304 17.7942 31.6916C15.4754 34.9176 15.0624 38.5594 16.372 42.221C18.8012 49.0196 23.2003 54.0506 30.2118 56.5056H31.2056C31.337 56.4418 31.4695 56.3813 31.5987 56.3153C31.9425 56.1524 32.2224 55.8805 32.3945 55.5421C32.5665 55.2037 32.621 54.818 32.5494 54.4455C32.4312 53.7141 31.8328 53.0662 31.0764 53.0156C30.1157 52.9518 29.2953 52.5668 28.5224 52.0708C25.0464 49.839 22.3081 46.9276 20.4939 43.2077C19.488 41.1442 18.9204 38.9675 19.403 36.661C19.9021 34.2819 21.1211 32.3911 23.516 31.5464C26.9169 30.3475 30.7783 32.885 31.1968 36.562C31.3315 37.7422 31.2575 38.9477 31.4297 40.1202C32.0558 44.3912 35.9569 47.5666 40.1528 47.3026C44.5761 47.0255 48.0919 43.4353 48.1956 39.0401C48.3204 33.7715 47.0749 28.8417 44.1102 24.4596C39.2661 17.2805 32.5218 13.5463 23.7115 14.0511Z" fill="#00F5E8"/>
<path d="M13.8401 43.1988C12.0867 39.2303 12.0215 35.2794 14.0046 31.3758C17.8074 23.8898 27.5066 22.0365 33.6304 27.6361C36.4725 30.233 37.8925 33.4932 37.9875 37.333C38.0173 38.5429 38.7604 39.3216 39.8293 39.2842C40.8981 39.2468 41.5319 38.4582 41.5165 37.2593C41.4879 34.3867 40.7179 31.5697 39.2805 29.0792C34.9742 21.5041 25.4914 18.6707 17.8914 22.6579C10.8003 26.3789 6.89699 35.1761 10.1753 43.5233C11.9652 48.0792 14.7422 51.9926 18.0371 55.5652C18.386 55.9435 18.8719 56.1965 19.2948 56.5078H20.0677C20.3846 56.2999 20.7578 56.1448 21.0085 55.8753C21.6632 55.1736 21.5528 54.1771 20.7998 53.3642C17.9786 50.3164 15.5284 47.0155 13.8401 43.1988Z" fill="#00F5E8"/>
<path d="M49.5006 19.9829C47.8874 17.6412 46.0059 15.5349 43.7787 13.7607C36.6457 8.07525 28.5786 5.95132 19.5817 7.66499C13.9216 8.7418 9.02127 11.3695 4.93359 15.3963C3.43853 16.8691 2.18529 18.586 0.85806 20.226C0.37222 20.8255 0.407548 21.5272 0.810574 22.1828C0.999464 22.4789 1.27409 22.7111 1.59818 22.8485C1.92228 22.986 2.28061 23.0223 2.62586 22.9527C3.30824 22.8339 3.6682 22.3312 4.0392 21.8165C8.78719 15.2423 15.1528 11.3574 23.2829 10.6953C30.7306 10.0892 37.2166 12.5156 42.7331 17.5147C44.2362 18.8932 45.5705 20.4438 46.7081 22.1344C47.1266 22.7492 47.7019 23.0495 48.4538 22.9516C49.176 22.8559 49.6563 22.4478 49.8959 21.7593C49.9221 21.7157 49.9541 21.6757 49.9909 21.6405V20.7606C49.8286 20.501 49.6751 20.2348 49.5006 19.9829Z" fill="#00F5E8"/>
<path d="M6.53028 10.9835C7.00728 10.5809 7.46883 10.1585 7.96572 9.78125C15.6166 3.96491 24.0769 2.26884 33.3454 4.94163C37.3436 6.09434 40.8428 8.18308 43.9455 10.9428C44.8057 11.7127 45.8668 11.6731 46.5503 10.9054C47.2338 10.1376 47.1466 9.08501 46.2941 8.32387C41.7338 4.25418 36.4492 1.65399 30.4016 0.631067C29.3184 0.448481 28.2242 0.33739 27.1343 0.191101H23.3801C22.5453 0.301093 21.7073 0.387985 20.8747 0.510076C14.5113 1.4384 8.95727 4.0848 4.17947 8.35907C3.36347 9.08941 3.29612 10.1475 3.96416 10.9032C4.63219 11.6588 5.69662 11.6852 6.53028 10.9835Z" fill="#00F5E8"/>
<path d="M37.3503 49.5553C36.2061 49.513 35.0897 49.1924 34.0985 48.6215C30.0859 46.2731 27.8223 42.7292 27.0317 38.2097C26.9213 37.5827 26.9445 36.9327 26.886 36.2958C26.8032 35.4016 26.1661 34.735 25.3192 34.6327C24.9134 34.5844 24.5036 34.6801 24.1617 34.903C23.8197 35.1259 23.5677 35.4617 23.4498 35.8515C23.3526 36.1968 23.3714 36.5741 23.3394 36.958C23.738 42.4575 26.1307 46.9243 30.4558 50.356C32.4036 51.9025 34.5965 52.9276 37.135 53.0607C38.2458 53.119 39.0927 52.4261 39.1634 51.4163C39.2341 50.4066 38.4578 49.6103 37.3503 49.5553Z" fill="#00F5E8"/>
</g>
<defs>
<clipPath id="clip0_2_354">
<rect width="49.4895" height="56.3156" fill="white" transform="translate(0.501465 0.1922)"/>
</clipPath>
</defs>
</svg>
