<svg width="51" height="37" viewBox="0 0 51 37" fill="none" xmlns="http://www.w3.org/2000/svg">
<path d="M49.2232 2.86126C48.3938 1.39345 47.0734 0.528637 45.3963 0.184603C45.29 0.162864 45.1875 0.121278 45.0831 0.0900879H5.4513C4.94962 0.243202 4.42764 0.350004 3.9511 0.556992C2.13963 1.34525 1.03961 2.71193 0.619124 4.60412C0.595925 4.70809 0.55436 4.80827 0.522461 4.91035V31.5635C0.763152 32.2251 0.923612 32.9246 1.26097 33.5323C2.09517 35.037 3.43008 35.9301 5.14005 36.2883C5.24638 36.3101 5.34787 36.3517 5.45227 36.3829H45.0831C45.7704 36.139 46.5012 35.9727 47.1362 35.6343C48.6606 34.8234 49.5528 33.5219 49.9153 31.8679C49.9375 31.7639 49.9801 31.6647 50.012 31.5626V4.9094C49.7548 4.22322 49.5808 3.49168 49.2232 2.86126ZM31.1201 9.16257C32.9381 9.16257 34.7563 9.16257 36.5748 9.16257C37.9987 9.16257 39.4225 9.16257 40.8464 9.16257C41.3213 9.16257 41.7959 9.16257 42.2702 9.16257C42.6524 9.16028 43.0219 9.29643 43.3075 9.54479C43.5931 9.79314 43.7746 10.1361 43.8168 10.5075C43.855 10.8791 43.7521 11.2515 43.5277 11.5537C43.3033 11.8559 42.973 12.0669 42.5998 12.1464C42.4405 12.175 42.2784 12.1867 42.1165 12.1814C38.4478 12.1814 34.7795 12.1814 31.1114 12.1814C30.0859 12.1814 29.3967 11.567 29.3976 10.6691C29.3986 9.77125 30.0859 9.16257 31.1201 9.16257ZM15.9876 8.15031C17.3552 8.15407 18.6654 8.68838 19.6305 9.63592C20.5956 10.5835 21.1367 11.8668 21.1349 13.204C21.1344 13.8665 21.0002 14.5224 20.74 15.1341C20.4798 15.7458 20.0987 16.3013 19.6186 16.7688C19.1384 17.2362 18.5687 17.6064 17.9419 17.8582C17.3152 18.11 16.6439 18.2384 15.9663 18.236C15.2892 18.2325 14.6195 18.0986 13.9954 17.8418C13.3714 17.5849 12.8052 17.2103 12.3294 16.7394C11.8535 16.2684 11.4773 15.7103 11.2223 15.097C10.9673 14.4837 10.8385 13.8273 10.8432 13.1653C10.8516 11.8351 11.3967 10.562 12.3601 9.6229C13.3235 8.68376 14.6272 8.15452 15.9876 8.15031ZM25.2672 26.6421C25.2595 27.7045 24.6486 28.3188 23.5601 28.3226C21.2402 28.3311 18.9252 28.3226 16.6072 28.3226H8.59092C7.28307 28.3226 6.74176 27.7555 6.69922 26.4815C6.64703 24.9154 6.96795 23.4759 8.02254 22.2567C9.15736 20.9429 10.6228 20.2662 12.3724 20.2482C14.7709 20.2236 17.1694 20.2236 19.568 20.2482C22.8013 20.2804 25.2527 22.7226 25.2653 25.886C25.2666 26.1419 25.2672 26.3939 25.2672 26.6421ZM43.0435 28.1062C42.804 28.234 42.5372 28.3052 42.2644 28.3141C38.5004 28.328 34.736 28.3296 30.9713 28.3188C30.168 28.3188 29.5378 27.7782 29.4247 27.0835C29.3 26.3274 29.6924 25.6318 30.4145 25.3964C30.6606 25.3269 30.9163 25.295 31.1723 25.3019C32.9906 25.2944 34.8088 25.3019 36.6261 25.3019C38.5245 25.3019 40.423 25.2925 42.3214 25.3019C42.6631 25.3044 42.9937 25.4202 43.2592 25.6303C43.5247 25.8405 43.7094 26.1326 43.783 26.4588C43.8623 26.7747 43.8328 27.1073 43.6991 27.4051C43.5654 27.703 43.335 27.9494 43.0435 28.1062ZM43.7946 19.0498C43.7245 19.3844 43.5386 19.6853 43.2681 19.9015C42.9977 20.1178 42.6592 20.2362 42.3098 20.2369C40.4124 20.2511 38.5139 20.2416 36.6154 20.2416C34.7489 20.2416 32.8833 20.2492 31.0167 20.2416C30.0172 20.2359 29.358 19.5649 29.4063 18.6348C29.4208 18.3263 29.5351 18.0302 29.7328 17.7894C29.9305 17.5485 30.2014 17.3752 30.5063 17.2946C30.7408 17.2414 30.981 17.2163 31.2216 17.22C34.8098 17.2162 38.3973 17.2181 41.9841 17.2256C42.3358 17.2204 42.6848 17.287 43.0087 17.4213C43.6225 17.6982 43.9386 18.425 43.7946 19.0498Z" fill="#00F5E8"/>
</svg>
