<svg width="51" height="51" viewBox="0 0 51 51" fill="none" xmlns="http://www.w3.org/2000/svg">
<path d="M49.8595 24.4036C33.6852 24.4036 17.5109 24.4036 1.33657 24.4036C1.17611 24.4036 1.01469 24.3959 0.853271 24.392V49.5234L1.7232 50.3933H49.4728L50.3428 49.5234V24.392C50.1823 24.392 50.0209 24.4036 49.8595 24.4036Z" fill="#00F5E8"/>
<path d="M17.4594 15.7672C22.8858 15.753 28.3123 15.753 33.7387 15.7672C34.1679 15.7672 34.2761 15.6502 34.2752 15.2268C34.2584 10.9738 34.2584 6.72275 34.2752 2.47361C34.2752 1.72934 34.0229 1.20158 33.3327 0.90387H17.8653C17.1742 1.20158 16.92 1.73031 16.9229 2.47458C16.9403 6.72758 16.9403 10.9783 16.9229 15.2268C16.92 15.6521 17.0312 15.7681 17.4594 15.7672Z" fill="#00F5E8"/>
<path d="M49.6217 21.3695C48.2153 18.1798 46.7992 14.99 45.4073 11.7858C45.1038 11.0889 44.634 10.7825 43.8743 10.7892C41.6676 10.8066 39.4608 10.795 37.2541 10.797C37.085 10.797 36.9168 10.8153 36.7389 10.826V15.7556C37.1314 15.7556 37.4822 15.7498 37.8321 15.7556C38.6595 15.773 39.2144 16.2727 39.2095 16.9899C39.2047 17.7071 38.6508 18.2127 37.8244 18.2136C29.6728 18.2136 21.5212 18.2136 13.3696 18.2136C12.5442 18.2136 11.9864 17.71 11.9826 16.9899C11.9787 16.2698 12.5355 15.772 13.36 15.7556C13.7215 15.7488 14.082 15.7556 14.4377 15.7556V10.8202C14.2531 10.8115 14.0955 10.796 13.938 10.796C11.7313 10.796 9.52453 10.8066 7.3178 10.7892C6.5629 10.7825 6.08927 11.0889 5.78576 11.7868C4.38807 15.0016 2.96524 18.2049 1.55208 21.414C1.48442 21.5677 1.42836 21.7272 1.35876 21.9031H49.8382C49.755 21.6914 49.6922 21.529 49.6217 21.3695Z" fill="#00F5E8"/>
</svg>
