<svg width="51" height="56" viewBox="0 0 51 56" fill="none" xmlns="http://www.w3.org/2000/svg">
<g clip-path="url(#clip0_2_364)">
<path d="M32.7368 36.7248V36.2688L32.5936 36.1857C32.411 36.4014 32.239 36.617 32.0446 36.8186C29.8615 39.0611 27.7029 41.3284 25.4834 43.5321C22.7321 46.264 18.2205 45.2344 16.9997 41.6033C16.2638 39.4082 16.8801 37.5205 18.4736 35.9C20.5553 33.7837 22.6156 31.6468 24.6845 29.5176C24.8148 29.3828 24.9312 29.2351 25.1117 29.0313C24.8554 29.0184 24.6845 29.0033 24.5136 29.0033H2.30076C1.11733 29.0033 0.791562 29.3375 0.791562 30.5482C0.791562 38.3272 0.788004 46.1055 0.780884 53.8831C0.780884 54.5742 0.946434 55.1068 1.56592 55.4442H31.8994C32.5402 55.1348 32.7475 54.6173 32.7453 53.9165C32.7304 48.1859 32.7275 42.4554 32.7368 36.7248Z" fill="#00F5E8"/>
<path d="M49.7107 13.9149C45.5894 9.73111 41.462 5.55267 37.3285 1.37962C36.9301 0.978563 36.4868 0.624941 36.065 0.243286H35.3173C34.2492 1.28583 33.1576 2.31004 32.1131 3.3817C31.6986 3.80755 31.7446 4.44041 32.1195 4.91263C32.2861 5.12179 32.4783 5.31046 32.6653 5.50237L45.197 18.2986C46.0269 19.146 46.6229 19.1503 47.4635 18.2986C48.13 17.6258 48.8007 16.9563 49.448 16.2642C49.7481 15.9407 49.9959 15.5742 50.2683 15.2259V14.6869C50.0856 14.4303 49.9318 14.1392 49.7107 13.9149Z" fill="#00F5E8"/>
<path d="M31.7542 8.03269C31.6842 7.97723 31.6034 7.93748 31.517 7.9161C31.4306 7.89472 31.3407 7.89219 31.2532 7.90871C28.9846 8.43483 26.7182 8.96635 24.457 9.52589C21.2026 10.3291 18.0091 11.3026 15.1049 13.0557C9.67482 16.3321 8.39847 21.3205 10.1918 26.9871H16.2446C17.5872 24.1722 20.6558 22.4903 23.6795 22.8418C26.0293 23.1145 27.7831 24.335 29.1406 26.2281C29.7035 27.0152 29.6746 27.5445 29.0103 28.2238C28.1195 29.1294 27.2262 30.0318 26.3305 30.9309C24.2157 33.0656 22.1016 35.201 19.9882 37.3371C18.8689 38.4735 18.6061 40.0906 19.3228 41.2787C20.3631 43.0037 22.7684 43.2398 24.2477 41.7326C26.7278 39.2055 29.1491 36.6159 31.6794 34.1416C33.6925 32.1633 35.4529 29.9387 36.9194 27.5197C38.6849 24.6336 40.5605 21.8154 42.3923 18.9627C42.3679 18.9101 42.3393 18.8596 42.3068 18.8118C38.79 15.2144 35.2724 11.6214 31.7542 8.03269Z" fill="#00F5E8"/>
</g>
<defs>
<clipPath id="clip0_2_364">
<rect width="49.4895" height="55.1998" fill="white" transform="translate(0.780884 0.243286)"/>
</clipPath>
</defs>
</svg>
