<svg width="19" height="25" viewBox="0 0 19 25" fill="none" xmlns="http://www.w3.org/2000/svg">
<path d="M0.951576 23.0769H18.0484C18.2858 23.0765 18.5147 23.166 18.6901 23.3279C18.8655 23.4898 18.9747 23.7123 18.9961 23.9516C19.0176 24.1909 18.9497 24.4296 18.806 24.6208C18.6622 24.812 18.4529 24.9418 18.2194 24.9846L18.0484 25H0.951576C0.714222 25.0004 0.485306 24.9109 0.309906 24.749C0.134506 24.5871 0.0253332 24.3646 0.00388712 24.1253C-0.0175589 23.886 0.0502757 23.6473 0.194033 23.4561C0.33779 23.2649 0.547051 23.1351 0.780607 23.0923L0.951576 23.0769H18.0484H0.951576ZM9.32903 0.0153847L9.5 5.34813e-08C9.72231 -7.49733e-05 9.9376 0.0787912 10.1084 0.222864C10.2792 0.366937 10.3946 0.567088 10.4346 0.788461L10.4498 0.961538V17.8692L15.5447 12.7135C15.7018 12.5542 15.9092 12.4558 16.1307 12.4354C16.3522 12.415 16.5737 12.4739 16.7567 12.6019L16.8896 12.7135C17.0467 12.8728 17.1435 13.0829 17.1633 13.3071C17.1831 13.5313 17.1246 13.7554 16.9979 13.9404L16.8877 14.0731L10.1725 20.8731C10.0151 21.0321 9.80757 21.1301 9.5861 21.1501C9.36464 21.1702 9.14324 21.1109 8.9605 20.9827L8.82752 20.8731L2.11226 14.0731C1.94398 13.9035 1.84456 13.6762 1.83358 13.4361C1.8226 13.196 1.90086 12.9604 2.05295 12.7758C2.20503 12.5912 2.4199 12.471 2.65521 12.4388C2.89053 12.4066 3.12922 12.4648 3.32424 12.6019L3.45531 12.7135L8.55018 17.8692V0.961538C8.5501 0.736489 8.62801 0.518544 8.77032 0.345656C8.91264 0.172769 9.11036 0.0558935 9.32903 0.0153847L9.5 5.34813e-08L9.32903 0.0153847Z" fill="#00F5E8"/>
</svg>
