<svg width="20" height="23" viewBox="0 0 20 23" fill="none" xmlns="http://www.w3.org/2000/svg">
<path d="M19.4321 20.2072C18.0108 18.6528 16.5897 17.0981 15.1688 15.5432C14.9885 15.3465 14.7763 15.1831 14.6309 15.0514C15.0314 14.3588 15.4179 13.7754 15.7186 13.1457C16.458 11.5983 16.7043 9.9471 16.4988 8.23004C16.2653 6.28168 15.4779 4.60261 14.1711 3.21056C12.8495 1.80289 11.2495 0.951959 9.37916 0.686465C9.19493 0.660717 9.01111 0.633281 8.82728 0.606689H7.74593C7.3979 0.661561 7.04706 0.702504 6.70224 0.775525C4.98891 1.13135 3.5279 1.98228 2.3208 3.30806C1.12852 4.61654 0.382788 6.17236 0.114855 7.96539C-0.139061 9.66556 0.0603863 11.3113 0.734824 12.8865C1.37322 14.3769 2.32881 15.5938 3.60479 16.5165C5.04057 17.5557 6.63456 18.0782 8.38353 18.0529C10.0009 18.0402 11.5783 17.5212 12.9152 16.5617C12.948 16.5384 12.9824 16.5194 13.0625 16.4528C13.1023 16.5259 13.1477 16.5955 13.1983 16.6608C14.6898 18.2974 16.1831 19.9344 17.6783 21.5719C17.9238 21.8424 18.1689 22.1045 18.5193 22.2176H18.9198C19.2963 22.0881 19.6067 21.877 19.7404 21.4579C19.8954 20.9725 19.7609 20.5652 19.4321 20.2072ZM8.28661 15.7778C4.91482 15.7711 2.17782 12.8853 2.17462 9.33465C2.17141 5.78403 4.91362 2.89315 8.2822 2.88555C11.6508 2.87795 14.3834 5.75575 14.403 9.31945C14.4226 12.8616 11.654 15.785 8.28661 15.7778Z" fill="#002D55"/>
</svg>
