<svg width="22" height="12" viewBox="0 0 22 12" fill="none" xmlns="http://www.w3.org/2000/svg">
<path d="M21.2917 6.09177C21.2274 6.44138 21.0177 6.68787 20.787 6.93066C19.3085 8.48699 17.834 10.0476 16.3636 11.6126C15.7508 12.2674 14.9104 11.8396 14.7498 11.1501C14.6596 10.7635 14.8027 10.4611 15.0562 10.1938C15.9969 9.20318 16.9367 8.21152 17.8754 7.21877C17.9314 7.15958 18.0094 7.12628 18.0772 7.08004L18.0286 6.99078H17.7581C12.4318 6.99078 7.10641 6.99078 1.78187 6.99078C1.62915 6.99689 1.47634 6.98134 1.32753 6.94454C0.902519 6.81875 0.66572 6.38959 0.714743 5.87626C0.736461 5.65967 0.828138 5.45759 0.974346 5.30404C1.12055 5.15049 1.31236 5.05484 1.51749 5.0332C1.63393 5.02262 1.75083 5.01876 1.86766 5.02164H18.0308L18.1048 4.91481C18.033 4.87643 17.9463 4.85469 17.8921 4.79781C16.944 3.80045 15.9978 2.80277 15.0535 1.80479C14.7782 1.51621 14.6543 1.18417 14.7664 0.776283C14.8093 0.618121 14.8891 0.473835 14.9983 0.356586C15.1076 0.239337 15.2429 0.152857 15.3919 0.105037C15.5409 0.0572173 15.6989 0.0495791 15.8514 0.0828177C16.0039 0.116056 16.1462 0.189113 16.2651 0.295327C16.3373 0.359608 16.403 0.434064 16.4699 0.503895C17.9085 2.02569 19.3479 3.54717 20.7879 5.06835C21.0181 5.31068 21.2256 5.55717 21.2917 5.90678V6.09177Z" fill="#002D55"/>
</svg>
