<svg width="40" height="40" viewBox="0 0 40 40" fill="none" xmlns="http://www.w3.org/2000/svg">
<g clip-path="url(#clip0_2059_24391)">
<path d="M38.3417 31.7599C36.9263 30.5138 35.5011 29.2774 34.0801 28.0382C31.7461 26.0024 29.412 23.9681 27.0779 21.931C25.3724 20.4434 23.6683 18.953 21.9643 17.4654C23.0703 16.043 22.5943 14.4624 21.2177 13.659C21.4689 13.4383 21.7214 13.251 21.9296 13.022C22.1114 12.8222 22.2959 12.7778 22.5485 12.8305C23.1285 12.9499 23.6919 12.8486 24.2262 12.621C26.2841 11.7426 26.7698 9.12264 25.1615 7.49627C23.1854 5.49801 21.1788 3.52749 19.2069 1.52507C18.5325 0.839549 17.8401 0.215091 16.8687 0H15.932C15.592 0.122116 15.2326 0.20954 14.9148 0.374675C13.7048 1.0033 13.0831 2.31605 13.2954 3.6843C13.3162 3.82029 13.2607 4.02012 13.1663 4.11587C10.1578 7.14102 7.14102 10.1578 4.11865 13.1691C4.03261 13.2552 3.87441 13.3287 3.76062 13.3148C1.84562 13.0789 0.571726 13.9365 0.0513443 15.8293C0.0416305 15.8668 0.0166522 15.8987 0 15.9334V16.8701C0.192888 17.5223 0.452385 18.1315 0.947788 18.6255C3.13339 20.8014 5.3065 22.9912 7.49488 25.1643C8.51483 26.1773 9.94276 26.4076 11.157 25.7915C12.3879 25.1657 13.0151 23.9098 12.8236 22.4722C12.8069 22.3445 12.8222 22.1752 12.8944 22.0808C13.1219 21.7853 13.3856 21.516 13.6451 21.2246C14.7705 22.7636 15.7807 22.944 17.4626 21.9754C17.5056 22.0212 17.5514 22.067 17.5944 22.1155C19.8925 24.7563 22.1891 27.3971 24.4885 30.0378C26.9322 32.8451 29.3634 35.6621 31.8265 38.4527C33.1157 39.914 35.1806 40.3747 36.9624 39.6767C38.8094 38.9537 40.0167 37.1844 39.9792 35.2153C39.9528 33.8234 39.3797 32.6744 38.3417 31.7599ZM14.944 2.50893C15.1716 1.92888 15.7641 1.55837 16.3886 1.56253C16.4052 1.53062 16.4232 1.4987 16.4399 1.46539C16.7854 1.64857 17.1976 1.76513 17.464 2.02741C19.6982 4.22411 21.9115 6.44163 24.118 8.66748C24.741 9.29749 24.7022 10.2758 24.0833 10.8739C23.4699 11.4664 22.5332 11.4748 21.906 10.8517C19.6829 8.64389 17.4682 6.42637 15.259 4.2033C14.7802 3.72177 14.6997 3.12784 14.944 2.50616V2.50893ZM11.1736 23.6267C10.91 24.2359 10.4173 24.5273 9.54727 24.5828C9.35438 24.4815 8.92697 24.365 8.65082 24.0944C6.42498 21.9074 4.22272 19.6968 2.02463 17.482C1.39046 16.8437 1.40711 15.889 2.01908 15.2756C2.62827 14.6664 3.59271 14.6526 4.22689 15.2826C6.44024 17.482 8.64527 19.6899 10.8448 21.9032C11.3304 22.3917 11.4484 22.9856 11.1722 23.6267H11.1736ZM11.9605 20.7084C9.78873 18.5367 7.59341 16.3414 5.42307 14.1696C8.33027 11.2611 11.2611 8.32888 14.1613 5.42862C16.3358 7.60035 18.5325 9.79428 20.7043 11.9632C17.7957 14.8718 14.8663 17.8012 11.9605 20.707V20.7084ZM16.4427 20.732C16.1804 20.9957 15.8779 21.1053 15.5226 20.9568C15.2187 20.8291 15.0619 20.5891 15.0494 20.127C15.1077 20.0257 15.184 19.7953 15.3367 19.6399C16.7535 18.2036 18.1814 16.7785 19.6094 15.3547C19.9868 14.9787 20.4614 14.9551 20.7875 15.2742C21.115 15.5962 21.097 16.0708 20.7209 16.4496C19.2985 17.8803 17.8692 19.3041 16.4441 20.7306L16.4427 20.732ZM37.4938 37.498C36.2685 38.7303 34.323 38.7386 33.081 37.516C32.952 37.3884 32.8326 37.2496 32.7133 37.1122C31.8349 36.1034 30.9578 35.0932 30.0697 34.0718L26.928 30.4611L18.5908 20.8819C19.3568 20.1131 20.0978 19.3693 20.8749 18.5894L30.4513 26.9433L34.1107 30.1433C35.2375 31.1258 36.3934 32.0749 37.48 33.1004C38.758 34.3077 38.7358 36.2519 37.4966 37.498H37.4938Z" fill="#002D55"/>
<path d="M19.8258 34.9181C19.8689 34.8404 19.9313 34.7294 19.991 34.617C20.9263 32.8269 19.6579 30.6371 17.6375 30.626C13.1608 30.6038 8.68274 30.6052 4.20607 30.626C2.51726 30.6343 1.26557 32.2496 1.63192 33.8995C1.71379 34.2701 1.89141 34.6198 2.03157 34.9958C1.34189 35.3941 0.768777 35.9367 0.423244 36.6763C0.244232 37.0593 0.138768 37.4784 0 37.8794V39.442C0.230356 39.8652 0.584215 39.997 1.06297 39.997C7.64892 39.9859 14.2349 39.9887 20.8194 39.9887C20.936 39.9887 21.0553 39.997 21.1705 39.979C21.5452 39.9193 21.813 39.6987 21.8477 39.324C21.9601 38.0695 21.8019 36.8692 20.9152 35.8895C20.596 35.537 20.2047 35.2498 19.8258 34.9153V34.9181ZM4.34484 32.183C6.55542 32.176 8.76461 32.1802 10.9752 32.1802C13.1469 32.1802 15.3173 32.176 17.489 32.1802C18.3854 32.183 18.9669 32.9712 18.6588 33.7608C18.4756 34.2284 18.1148 34.5101 17.6167 34.5115C13.158 34.5226 8.69801 34.524 4.23938 34.5115C3.60382 34.5101 3.11535 33.9509 3.12507 33.3334C3.13617 32.6784 3.64545 32.1816 4.34484 32.1802V32.183ZM1.5778 38.4026C1.58057 37.1162 2.6033 36.0935 3.90356 36.0879C6.16826 36.0782 8.43296 36.0852 10.6977 36.0852C13.1192 36.0852 15.5393 36.0782 17.9608 36.0879C19.2611 36.0935 20.2824 37.112 20.2879 38.4026H1.5778Z" fill="#002D55"/>
</g>
<defs>
<clipPath id="clip0_2059_24391">
<rect width="39.9806" height="40" fill="white"/>
</clipPath>
</defs>
</svg>
