<svg width="45" height="45" viewBox="0 0 45 45" fill="none" xmlns="http://www.w3.org/2000/svg">
<rect width="45" height="45" rx="22.5" fill="#002D55"/>
<path d="M32.9994 27.7225V30.8839C33.0005 31.1774 32.9403 31.4679 32.8225 31.7368C32.7047 32.0057 32.5319 32.247 32.3152 32.4454C32.0985 32.6438 31.8427 32.7949 31.5642 32.8889C31.2856 32.9829 30.9904 33.0179 30.6975 32.9914C27.4484 32.6391 24.3275 31.5311 21.5853 29.7563C19.0342 28.1384 16.8712 25.9798 15.2501 23.4336C13.4657 20.6845 12.3552 17.5546 12.0086 14.2973C11.9822 14.0059 12.0169 13.7122 12.1105 13.435C12.204 13.1577 12.3544 12.9029 12.5521 12.6868C12.7498 12.4707 12.9903 12.298 13.2585 12.1798C13.5267 12.0616 13.8166 12.0004 14.1098 12.0001H17.2774C17.7898 11.9951 18.2866 12.1762 18.6751 12.5096C19.0636 12.8431 19.3174 13.3062 19.3891 13.8126C19.5228 14.8243 19.7708 15.8177 20.1282 16.7737C20.2703 17.1509 20.301 17.5608 20.2168 17.9549C20.1326 18.349 19.937 18.7107 19.6531 18.9972L18.3121 20.3355C19.8152 22.9737 22.004 25.1581 24.6474 26.6582L25.9883 25.3199C26.2754 25.0366 26.6379 24.8413 27.0327 24.7573C27.4276 24.6732 27.8383 24.7039 28.2162 24.8457C29.1742 25.2025 30.1695 25.4499 31.1832 25.5834C31.6962 25.6556 32.1646 25.9134 32.4994 26.3078C32.8343 26.7022 33.0122 27.2057 32.9994 27.7225Z" stroke="#00F5E8" stroke-width="2" stroke-linecap="round" stroke-linejoin="round"/>
</svg>
