<svg width="40" height="40" viewBox="0 0 40 40" fill="none" xmlns="http://www.w3.org/2000/svg">
<g clip-path="url(#clip0_2090_24224)">
<path d="M40.0001 5.18112C39.7469 6.69885 38.785 7.74973 37.747 8.78618C33.511 13.0149 29.2937 17.2626 25.0988 21.5337C24.4697 22.1745 23.7897 22.5503 22.9217 22.7116C21.3889 22.9973 19.8677 23.3461 18.343 23.6733C17.015 23.9572 16.1784 23.119 16.4612 21.7833C16.8361 20.0133 17.1931 18.2387 17.5985 16.4758C17.6808 16.118 17.8768 15.7358 18.1318 15.4763C22.7669 10.7807 27.4128 6.0959 32.0721 1.42464C33.4107 0.0826556 35.042 -0.317507 36.8361 0.24939C38.5747 0.798261 39.5984 2.04111 39.9295 3.85265C39.9393 3.90853 39.976 3.959 40.0001 4.01218V5.18112V5.18112ZM30.5473 6.96833C30.4373 7.09451 30.3165 7.24772 30.1813 7.38381C27.1318 10.458 24.0903 13.5413 21.0202 16.5939C20.5317 17.0796 20.2113 17.5852 20.1111 18.2693C20.0082 18.9705 19.8364 19.6627 19.678 20.4423C20.6337 20.2377 21.5052 20.0691 22.3651 19.8555C22.6211 19.7915 22.8931 19.6491 23.0792 19.4626C26.3077 16.2297 29.5246 12.9852 32.7432 9.74243C32.8461 9.63878 32.9427 9.52793 33.0152 9.45042C32.2018 8.63207 31.4055 7.83084 30.5473 6.96743V6.96833ZM32.7575 4.87739C33.545 5.6687 34.3485 6.47714 35.1556 7.28828C35.6496 6.79619 36.1981 6.29238 36.6974 5.74261C37.3211 5.05494 37.2835 4.04012 36.6562 3.38399C36.0406 2.73959 35.0259 2.63144 34.3566 3.22267C33.7705 3.74089 33.2622 4.34925 32.7575 4.87739V4.87739Z" fill="#002D55"/>
<path d="M19.3577 39.9993C15.2657 39.9993 11.1746 40.0002 7.08264 39.9993C3.00139 39.9975 0.00197086 36.9872 0.00107604 32.8874C0.000181229 24.6155 0.000181229 16.3428 0.00197086 8.07101C0.00286567 4.00269 3.01481 0.961816 7.04864 0.959113C13.1047 0.955508 19.16 0.95731 25.2161 0.959113C26.3265 0.959113 27.0424 1.88561 26.7032 2.86619C26.5118 3.42137 26.0142 3.7999 25.4281 3.83145C25.2653 3.84046 25.1006 3.83505 24.9369 3.83505C18.9559 3.83505 12.9741 3.83145 6.99316 3.83776C4.86171 3.83956 3.23673 5.24103 2.89938 7.34909C2.85911 7.59874 2.86001 7.8565 2.86001 8.11066C2.85822 16.3527 2.85732 24.5957 2.85911 32.8378C2.85911 35.4055 4.56105 37.1197 7.11038 37.1206C15.2935 37.1224 23.4774 37.1224 31.6605 37.1206C34.217 37.1206 35.9028 35.419 35.9046 32.836C35.9073 26.9012 35.9046 20.9672 35.9082 15.0324C35.9082 14.8098 35.9163 14.5799 35.9682 14.3654C36.1391 13.6525 36.795 13.2001 37.5037 13.283C38.1927 13.3632 38.7206 13.9355 38.7591 14.643C38.7627 14.7178 38.7627 14.7926 38.7627 14.8675C38.7627 20.9366 38.7743 27.0066 38.7573 33.0757C38.7483 36.3825 36.5605 39.1088 33.3589 39.8343C32.8282 39.9542 32.269 39.9912 31.7223 39.9921C27.6007 40.0047 23.4792 39.9993 19.3577 39.9993V39.9993Z" fill="#002D55"/>
</g>
<defs>
<clipPath id="clip0_2090_24224">
<rect width="40" height="40" fill="white"/>
</clipPath>
</defs>
</svg>
