<svg width="41" height="40" viewBox="0 0 41 40" fill="none" xmlns="http://www.w3.org/2000/svg">
<g clip-path="url(#clip0_2059_24379)">
<path d="M39.7088 16.5513C38.412 8.80342 32.3922 2.36801 24.7586 0.558616C14.2106 -1.94104 3.74472 4.1641 0.763762 14.5564C-2.37451 25.4981 4.46707 37.033 15.5747 39.5013C16.5107 39.7095 17.4748 39.7901 18.4257 39.9317C18.54 39.949 18.6519 39.9771 18.7646 39.9998H21.2642C22.0093 39.8981 22.7567 39.812 23.4986 39.6915C31.3028 38.4252 37.9315 32.0814 39.5358 24.3265C39.7252 23.4124 39.8113 22.4764 39.9467 21.5514C39.9616 21.4496 39.9898 21.3502 40.0125 21.2493V18.7488C39.9123 18.0163 39.8309 17.2799 39.7096 16.5505L39.7088 16.5513ZM20.0207 37.4994C10.3766 37.5041 2.50585 29.6279 2.51759 19.9854C2.53011 10.3459 10.3734 2.50497 20.0089 2.49949C29.6554 2.49401 37.5245 10.3679 37.512 20.0127C37.4995 29.6529 29.6554 37.4947 20.0207 37.4994Z" fill="#002D55"/>
<path d="M20.0584 18.7545C18.3202 18.6942 16.9577 17.4319 16.8943 15.7727C16.8277 14.0346 18.1707 12.5633 19.8776 12.503C21.633 12.4412 23.0636 13.774 23.1364 15.5387C23.1692 16.3417 23.6897 16.8864 24.412 16.8731C25.1469 16.8598 25.6525 16.2721 25.6337 15.4527C25.5805 13.072 23.9284 10.9229 21.6251 10.2381C21.5054 10.2021 21.3872 10.1606 21.2636 10.12C21.2636 9.66369 21.2683 9.23482 21.2628 8.80595C21.2518 8.04916 20.7111 7.49351 20.0004 7.50055C19.3039 7.5076 18.7772 8.05464 18.7663 8.79186C18.7592 9.23325 18.7647 9.67543 18.7647 10.1239C18.6489 10.163 18.5534 10.2006 18.4556 10.228C15.3361 11.1021 13.5995 14.5401 14.7413 17.5806C15.5646 19.7727 17.5978 21.1994 19.9691 21.2495C21.7104 21.2862 23.0683 22.5627 23.134 24.2249C23.2029 25.9623 21.8607 27.4336 20.1507 27.4963C18.3992 27.5604 16.9639 26.2229 16.8911 24.4605C16.8583 23.6552 16.3402 23.1136 15.6155 23.1262C14.8775 23.1395 14.3664 23.7217 14.3954 24.545C14.4416 25.8653 14.8939 27.0337 15.7563 28.037C16.553 28.9644 17.5579 29.5561 18.7639 29.8621C18.7639 30.334 18.7592 30.7629 18.7647 31.1917C18.7749 31.9485 19.3149 32.5057 20.0247 32.4995C20.7189 32.4932 21.2495 31.9438 21.262 31.2082C21.2691 30.7668 21.2636 30.3254 21.2636 29.8746C21.4052 29.8308 21.5273 29.7932 21.6502 29.7556C24.8589 28.7774 26.5407 25.1829 25.1586 22.133C24.178 19.9683 22.4391 18.8382 20.0584 18.7553V18.7545Z" fill="#002D55"/>
</g>
<defs>
<clipPath id="clip0_2059_24379">
<rect width="40.0125" height="40" fill="white"/>
</clipPath>
</defs>
</svg>
