<svg width="34" height="40" viewBox="0 0 34 40" fill="none" xmlns="http://www.w3.org/2000/svg">
<g clip-path="url(#clip0_2059_24345)">
<path d="M27.0727 40H6.51529C2.92331 40 0 37.0767 0 33.4847V6.51529C0 2.92331 2.92331 0 6.51529 0H27.0727C30.6657 0 33.588 2.92331 33.588 6.51529V33.4847C33.588 37.0777 30.6647 40 27.0727 40ZM6.51529 1.50376C3.75138 1.50376 1.50376 3.75238 1.50376 6.51529V33.4847C1.50376 36.2486 3.75238 38.4962 6.51529 38.4962H27.0727C29.8366 38.4962 32.0842 36.2476 32.0842 33.4847V6.51529C32.0842 3.75138 29.8356 1.50376 27.0727 1.50376H6.51529Z" fill="#002D55"/>
<path d="M25.4567 26.3156H15.4627C14.6327 26.3156 13.959 25.6419 13.959 24.8119C13.959 23.9818 14.6327 23.3081 15.4627 23.3081H25.4567C26.2868 23.3081 26.9605 23.9818 26.9605 24.8119C26.9605 25.6419 26.2868 26.3156 25.4567 26.3156Z" fill="#002D55"/>
<path d="M25.4567 21.1027H15.4627C14.6327 21.1027 13.959 20.429 13.959 19.599C13.959 18.7689 14.6327 18.0952 15.4627 18.0952H25.4567C26.2868 18.0952 26.9605 18.7689 26.9605 19.599C26.9605 20.429 26.2868 21.1027 25.4567 21.1027Z" fill="#002D55"/>
<path d="M25.4567 15.8898H15.4627C14.6327 15.8898 13.959 15.2162 13.959 14.3861C13.959 13.556 14.6327 12.8823 15.4627 12.8823H25.4567C26.2868 12.8823 26.9605 13.556 26.9605 14.3861C26.9605 15.2162 26.2868 15.8898 25.4567 15.8898Z" fill="#002D55"/>
<path d="M9.70732 26.3156H8.09629C7.26621 26.3156 6.59253 25.6419 6.59253 24.8119C6.59253 23.9818 7.26621 23.3081 8.09629 23.3081H9.70732C10.5374 23.3081 11.2111 23.9818 11.2111 24.8119C11.2111 25.6419 10.5374 26.3156 9.70732 26.3156Z" fill="#002D55"/>
<path d="M9.70732 21.1027H8.09629C7.26621 21.1027 6.59253 20.429 6.59253 19.599C6.59253 18.7689 7.26621 18.0952 8.09629 18.0952H9.70732C10.5374 18.0952 11.2111 18.7689 11.2111 19.599C11.2111 20.429 10.5374 21.1027 9.70732 21.1027Z" fill="#002D55"/>
<path d="M9.70732 15.8898H8.09629C7.26621 15.8898 6.59253 15.2162 6.59253 14.3861C6.59253 13.556 7.26621 12.8823 8.09629 12.8823H9.70732C10.5374 12.8823 11.2111 13.556 11.2111 14.3861C11.2111 15.2162 10.5374 15.8898 9.70732 15.8898Z" fill="#002D55"/>
</g>
<defs>
<clipPath id="clip0_2059_24345">
<rect width="33.588" height="40" fill="white"/>
</clipPath>
</defs>
</svg>
