<svg width="79" height="95" viewBox="0 0 79 95" fill="none" xmlns="http://www.w3.org/2000/svg">
<g clip-path="url(#clip0_2309_24282)">
<path d="M63.6758 94.0813H15.3242C6.87572 94.0813 0 87.2056 0 78.7571V15.3242C0 6.87571 6.87572 0 15.3242 0H63.6758C72.1266 0 79 6.87571 79 15.3242V78.7571C79 87.2079 72.1243 94.0813 63.6758 94.0813ZM15.3242 3.53689C8.82336 3.53689 3.53689 8.82572 3.53689 15.3242V78.7571C3.53689 85.2579 8.82572 90.5444 15.3242 90.5444H63.6758C70.1766 90.5444 75.4631 85.2556 75.4631 78.7571V15.3242C75.4631 8.82336 70.1743 3.53689 63.6758 3.53689H15.3242V3.53689Z" fill="white"/>
<path d="M59.8746 61.8956H36.3684C34.4161 61.8956 32.8315 60.311 32.8315 58.3587C32.8315 56.4063 34.4161 54.8218 36.3684 54.8218H59.8746C61.827 54.8218 63.4115 56.4063 63.4115 58.3587C63.4115 60.311 61.827 61.8956 59.8746 61.8956Z" fill="white"/>
<path d="M59.8746 49.6343H36.3684C34.4161 49.6343 32.8315 48.0498 32.8315 46.0974C32.8315 44.1451 34.4161 42.5605 36.3684 42.5605H59.8746C61.827 42.5605 63.4115 44.1451 63.4115 46.0974C63.4115 48.0498 61.827 49.6343 59.8746 49.6343Z" fill="white"/>
<path d="M59.8746 37.3731H36.3684C34.4161 37.3731 32.8315 35.7886 32.8315 33.8362C32.8315 31.8838 34.4161 30.2993 36.3684 30.2993H59.8746C61.827 30.2993 63.4115 31.8838 63.4115 33.8362C63.4115 35.7886 61.827 37.3731 59.8746 37.3731Z" fill="white"/>
<path d="M22.8319 61.8956H19.0428C17.0904 61.8956 15.5059 60.311 15.5059 58.3587C15.5059 56.4063 17.0904 54.8218 19.0428 54.8218H22.8319C24.7843 54.8218 26.3688 56.4063 26.3688 58.3587C26.3688 60.311 24.7843 61.8956 22.8319 61.8956V61.8956Z" fill="white"/>
<path d="M22.8319 49.6343H19.0428C17.0904 49.6343 15.5059 48.0498 15.5059 46.0974C15.5059 44.1451 17.0904 42.5605 19.0428 42.5605H22.8319C24.7843 42.5605 26.3688 44.1451 26.3688 46.0974C26.3688 48.0498 24.7843 49.6343 22.8319 49.6343V49.6343Z" fill="white"/>
<path d="M22.8319 37.3731H19.0428C17.0904 37.3731 15.5059 35.7886 15.5059 33.8362C15.5059 31.8838 17.0904 30.2993 19.0428 30.2993H22.8319C24.7843 30.2993 26.3688 31.8838 26.3688 33.8362C26.3688 35.7886 24.7843 37.3731 22.8319 37.3731V37.3731Z" fill="white"/>
</g>
<defs>
<clipPath id="clip0_2309_24282">
<rect width="79" height="94.0813" fill="white"/>
</clipPath>
</defs>
</svg>
