<svg width="39" height="40" viewBox="0 0 39 40" fill="none" xmlns="http://www.w3.org/2000/svg">
<g clip-path="url(#clip0_2059_24273)">
<path d="M38.1572 7.29757L31.5543 0.694624C31.1065 0.24685 30.5083 0 29.8722 0C29.2362 0 28.638 0.24685 28.1902 0.694624L27.1638 1.72106C26.2361 2.64876 26.2361 4.15856 27.1638 5.08625L33.7667 11.6892C34.2306 12.153 34.8402 12.385 35.4488 12.385C36.0573 12.385 36.6669 12.153 37.1308 11.6892L38.1572 10.6628C38.605 10.215 38.8518 9.61681 38.8518 8.98074C38.8518 8.34467 38.605 7.74649 38.1572 7.29872V7.29757ZM36.939 9.44459L35.9126 10.471C35.6566 10.7271 35.2398 10.7271 34.9838 10.471L28.3808 3.86808C28.1248 3.61204 28.1248 3.19527 28.3808 2.93923L29.4073 1.9128C29.5301 1.78995 29.6954 1.72221 29.8722 1.72221C30.0491 1.72221 30.2144 1.78995 30.3372 1.9128L36.9402 8.51574C37.063 8.63859 37.1308 8.80393 37.1308 8.98074C37.1308 9.15755 37.063 9.32288 36.9402 9.44574L36.939 9.44459Z" fill="#002D55"/>
<path d="M32.9986 11.3839C30.8631 9.2231 28.6541 6.98767 26.4795 4.80506C26.1293 4.45258 25.5725 4.39173 25.2051 4.48358L23.7148 4.85443C21.3393 5.44572 18.8823 6.05653 16.4723 6.6949C13.8351 7.39297 11.5801 9.1634 10.2839 11.5515C9.006 13.9075 8.75685 16.5838 9.58236 19.0902C9.69029 19.4186 9.98421 19.6505 10.3287 19.6792C10.3447 19.6803 10.3608 19.6826 10.378 19.6838C10.4423 19.6907 10.5307 19.6999 10.6306 19.6999C11.7627 19.6999 12.8947 19.6999 14.0107 19.6999H14.7237C15.0268 19.6999 15.3081 19.5403 15.4631 19.2796C15.5136 19.1947 15.5619 19.112 15.6078 19.0305C15.6916 18.8835 15.7651 18.7561 15.8409 18.647C16.6733 17.4495 17.973 16.7526 19.4081 16.7342C19.4277 16.7342 19.446 16.7342 19.4644 16.7342C20.9306 16.7342 22.2831 17.4357 23.1832 18.6654C23.2946 18.8169 23.352 18.9111 23.383 18.9674C23.3462 19.0156 23.2785 19.0948 23.1568 19.2176C22.8135 19.5621 22.4702 19.9054 22.1269 20.2498H4.45937C2.00006 20.2498 0 22.2499 0 24.7092V35.5384C0 37.9977 2.00006 39.9978 4.45937 39.9978H27.6885C30.1478 39.9978 32.1479 37.9977 32.1479 35.5384V24.7092C32.1479 22.9778 31.1134 21.4186 29.6036 20.6884C30.7563 18.918 31.9125 17.1361 33.0365 15.4012L33.9837 13.9397C34.0423 13.8489 34.0986 13.7548 34.1548 13.6595L34.2226 13.5458C34.4269 13.2083 34.3764 12.7754 34.0986 12.4941L32.9986 11.3805V11.3839ZM30.4257 24.7103V35.5396C30.4257 37.0482 29.1983 38.2767 27.6885 38.2767H4.45937C2.95072 38.2767 1.72221 37.0494 1.72221 35.5396V24.7103C1.72221 23.2017 2.94957 21.9732 4.45937 21.9732H20.407L19.9592 22.4221C19.6389 22.7436 19.3163 23.0628 18.9948 23.3831L18.9638 23.4141C18.2359 24.1386 17.4839 24.886 16.7559 25.6403C15.9488 26.4773 15.625 27.6036 15.8914 28.6553C16.1371 29.6267 16.8685 30.3925 17.8478 30.7036C17.9293 30.73 18.0108 30.7518 18.0924 30.7714C18.1188 30.7783 18.1452 30.7828 18.1716 30.7886C18.2267 30.8012 18.2807 30.8127 18.3358 30.8219C18.3668 30.8276 18.3966 30.8311 18.4276 30.8357C18.4781 30.8425 18.5275 30.8494 18.578 30.854C18.609 30.8575 18.6412 30.8598 18.6722 30.8609C18.7215 30.8644 18.7709 30.8655 18.8203 30.8667C18.8387 30.8667 18.857 30.869 18.8754 30.869C18.8926 30.869 18.9098 30.869 18.9259 30.8678C18.9454 30.8678 18.9638 30.8678 18.9833 30.8667C19.0384 30.8644 19.0924 30.8609 19.1464 30.8563C19.1555 30.8563 19.1659 30.8552 19.1751 30.854C19.2371 30.8483 19.2979 30.8391 19.3588 30.8288C19.3771 30.8253 19.3967 30.8219 19.415 30.8184C19.4609 30.8104 19.5069 30.8001 19.5528 30.7897C19.57 30.7851 19.5872 30.7817 19.6056 30.7771C19.6653 30.7622 19.7239 30.745 19.7824 30.7266C19.7974 30.722 19.8111 30.7162 19.8249 30.7117C19.8708 30.6956 19.9168 30.6795 19.9627 30.6611C19.9811 30.6543 19.9994 30.6462 20.0178 30.6382C20.0695 30.6164 20.12 30.5934 20.1705 30.5693C20.1774 30.5658 20.1843 30.5636 20.1912 30.5601C20.2474 30.5326 20.3025 30.5016 20.3576 30.4694C20.3749 30.4602 20.3909 30.4499 20.4082 30.4395C20.4506 30.4131 20.4931 30.3867 20.5356 30.358C20.5494 30.3488 20.5632 30.3397 20.5769 30.3305C20.6309 30.2937 20.6837 30.2547 20.7354 30.2145C20.748 30.2053 20.7595 30.195 20.771 30.1858C20.8135 30.1525 20.8548 30.1169 20.8961 30.0813C20.911 30.0687 20.9248 30.0561 20.9398 30.0423C20.9903 29.9964 21.0419 29.9481 21.0913 29.8976C21.9662 29.009 22.8411 28.1203 23.7159 27.2316C25.1385 25.7873 26.561 24.3441 27.9813 22.8974L28.0031 22.8745C28.0594 22.8171 28.1168 22.7585 28.1753 22.6977C28.1925 22.6793 28.2098 22.6609 28.227 22.6425C28.2695 22.5978 28.3119 22.5518 28.3533 22.5048C28.3751 22.4795 28.3969 22.4542 28.4199 22.429C28.4578 22.3854 28.4945 22.3417 28.5312 22.2958C28.5542 22.2671 28.5772 22.2384 28.599 22.2085C28.6139 22.1879 28.63 22.1695 28.6449 22.1488C29.6886 22.545 30.4245 23.5668 30.4245 24.7103H30.4257ZM31.591 14.4655C30.3671 16.353 29.1076 18.2968 27.8538 20.22L27.305 21.0627C27.1764 21.2602 26.9813 21.4577 26.7757 21.6678L26.7528 21.6907C25.3325 23.1362 23.9111 24.5795 22.4897 26.0238C21.6149 26.9125 20.7388 27.8011 19.8639 28.6898C19.4242 29.1376 18.9627 29.2524 18.3691 29.0629C17.95 28.9297 17.663 28.6347 17.5608 28.234C17.5309 28.1169 17.5194 27.9963 17.524 27.8746C17.5378 27.5106 17.7031 27.1409 17.9959 26.8378C18.7215 26.0858 19.4782 25.3338 20.2095 24.6059C20.5333 24.2844 20.8559 23.9629 21.1786 23.6403L22.3141 22.5025C22.7974 22.0191 23.2797 21.5346 23.763 21.0501L24.5598 20.2521H24.5495C25.3188 19.3922 25.3165 18.6665 24.5725 17.6504C23.344 15.9719 21.4851 15.0143 19.4644 15.0143C19.438 15.0143 19.4116 15.0143 19.3852 15.0143C17.3874 15.0384 15.5791 16.0052 14.4252 17.6665C14.3529 17.771 14.2874 17.8755 14.2266 17.98H14.0107C13.0337 17.98 12.044 17.98 11.0531 17.98C10.5881 16.0982 10.8453 14.1291 11.7971 12.3747C12.8672 10.4011 14.7318 8.93836 16.9121 8.362C19.3094 7.72708 21.7607 7.11741 24.1304 6.52842L25.4382 6.20235C27.5519 8.32526 29.6966 10.4952 31.7724 12.5963L32.3947 13.2255L31.5899 14.4678L31.591 14.4655Z" fill="#002D55"/>
</g>
<defs>
<clipPath id="clip0_2059_24273">
<rect width="38.8519" height="40" fill="white"/>
</clipPath>
</defs>
</svg>
